<svg width="779" height="275" viewBox="0 0 779 275" fill="none" xmlns="http://www.w3.org/2000/svg">
<path fill-rule="evenodd" clip-rule="evenodd" d="M355.431 200.583V188.361C357.064 189.675 358.825 190.946 360.715 192.175C365.93 195.564 372.122 198.302 379.292 200.388C386.463 202.343 394.741 203.321 404.128 203.321C417.295 203.321 427.985 201.757 436.198 198.628C444.542 195.499 450.669 191.132 454.58 185.526L454.633 185.451C457.125 187.819 459.998 190.06 463.251 192.175C468.466 195.564 474.658 198.302 481.828 200.388C488.999 202.343 497.277 203.321 506.663 203.321C519.831 203.321 530.521 201.757 538.734 198.628C542.035 197.39 544.99 195.958 547.597 194.332V200.583H573.606V108.68L667.666 200.583H693.675V74.0606H667.666V166.682L573.606 74.0606H547.597V86.1872C546.543 85.1655 545.414 84.1872 544.209 83.2522C534.432 75.4301 520.417 71.519 502.166 71.519C490.042 71.519 479.808 73.0835 471.464 76.2123C463.121 79.3411 456.798 83.7085 452.496 89.3143C451.702 90.3805 450.984 91.4798 450.341 92.6121C448.1 89.1182 445.211 85.9983 441.674 83.2522C431.896 75.4301 417.881 71.519 399.63 71.519C387.506 71.519 377.272 73.0835 368.928 76.2123C363.607 78.2076 359.108 80.7066 355.431 83.7093V74.0606H329.423V126.273H236.535V74.0606H210.527V87.4197C205.556 83.3279 199.607 79.9835 192.682 77.3863C182.383 73.4753 170.128 71.5198 155.918 71.5198C144.054 71.5198 133.169 72.9538 123.261 75.8219C113.483 78.5596 105.009 82.7314 97.8388 88.3373C90.799 93.8127 85.3235 100.657 81.4125 108.87C77.5014 117.083 75.5459 126.665 75.5459 137.616C75.5459 148.567 77.5014 158.149 81.4125 166.363C85.3235 174.445 90.799 181.225 97.8388 186.7C105.009 192.175 113.483 196.282 123.261 199.02C133.169 201.758 144.054 203.126 155.918 203.126C170.128 203.126 182.383 201.236 192.682 197.455C199.601 194.915 205.549 191.61 210.527 187.54V200.583H236.535V147.979H329.423V200.583H355.431ZM547.597 115.127H533.259C532.737 107.435 529.478 101.895 523.481 98.5052C517.614 95.1157 510.183 93.4209 501.188 93.4209C492.844 93.4209 485.935 94.6594 480.459 97.1364C475.114 99.6134 472.442 103.85 472.442 109.847C472.442 112.194 473.094 114.28 474.397 116.105C475.701 117.8 477.917 119.299 481.046 120.603C484.175 121.906 488.412 123.145 493.757 124.318C499.102 125.491 505.751 126.665 513.703 127.838C521.134 128.881 527.848 130.315 533.845 132.14C539.1 133.594 543.685 135.479 547.597 137.796V115.127ZM355.431 157.953V132.719C356.655 133.688 357.96 134.603 359.346 135.465C364.3 138.463 369.971 140.94 376.359 142.896C382.747 144.721 389.526 146.155 396.697 147.198C405.822 148.501 413.188 149.805 418.794 151.109C424.4 152.282 428.506 153.846 431.114 155.802C433.721 157.627 435.025 160.3 435.025 163.82C435.025 167.47 433.982 170.599 431.896 173.206C429.81 175.814 426.616 177.834 422.314 179.268C418.012 180.702 412.536 181.419 405.888 181.419C398.587 181.419 392.003 180.442 386.137 178.486C380.27 176.4 375.512 173.597 371.861 170.077C368.342 166.427 366.321 162.386 365.799 157.953H355.431ZM202.068 120.408H210.527V155.021H202.068C200.243 160.235 197.31 164.798 193.268 168.709C189.357 172.62 184.273 175.619 178.015 177.705C171.888 179.79 164.522 180.833 155.918 180.833C145.228 180.833 135.841 179.204 127.758 175.945C119.676 172.555 113.418 167.666 108.985 161.278C104.553 154.89 102.337 147.003 102.337 137.616C102.337 128.1 104.553 120.147 108.985 113.759C113.418 107.241 119.676 102.352 127.758 99.0926C135.841 95.703 145.228 94.0083 155.918 94.0083C164.522 94.0083 171.953 95.0512 178.211 97.1371C184.468 99.223 189.553 102.287 193.464 106.328C197.505 110.239 200.373 114.932 202.068 120.408ZM460.01 157.953H468.335C468.857 162.386 470.877 166.427 474.397 170.077C478.048 173.597 482.806 176.4 488.673 178.486C494.539 180.442 501.123 181.419 508.423 181.419C515.072 181.419 520.548 180.702 524.85 179.268C529.152 177.834 532.346 175.814 534.432 173.206C536.518 170.599 537.561 167.47 537.561 163.82C537.561 160.3 536.257 157.627 533.65 155.802C531.042 153.846 526.936 152.282 521.33 151.109C515.724 149.805 508.358 148.501 499.232 147.198C492.062 146.155 485.283 144.721 478.895 142.896C472.507 140.94 466.836 138.463 461.882 135.465C457.058 132.466 453.213 128.816 450.344 124.514C448.607 121.7 447.42 118.571 446.786 115.127H430.723C430.201 107.435 426.942 101.895 420.945 98.5052C415.079 95.1157 407.648 93.4209 398.652 93.4209C390.309 93.4209 383.399 94.6594 377.924 97.1364C372.579 99.6134 369.906 103.85 369.906 109.847C369.906 112.194 370.558 114.28 371.861 116.105C373.165 117.8 375.381 119.299 378.51 120.603C381.639 121.906 385.876 123.145 391.221 124.318C396.566 125.491 403.215 126.665 411.167 127.838C418.598 128.881 425.312 130.315 431.309 132.14C437.437 133.835 442.651 136.116 446.954 138.985C451.386 141.722 454.776 145.242 457.122 149.544C458.474 152.023 459.437 154.826 460.01 157.953Z" fill="white"/>
<g style="mix-blend-mode:multiply">
<path d="M227.881 155.021C226.708 165.19 223.123 173.859 217.126 181.029C211.129 188.199 202.981 193.675 192.682 197.456C182.383 201.236 170.128 203.127 155.918 203.127C144.054 203.127 133.169 201.758 123.261 199.02C113.483 196.282 105.009 192.176 97.8388 186.7C90.799 181.225 85.3235 174.446 81.4125 166.363C77.5014 158.15 75.5459 148.568 75.5459 137.617C75.5459 126.666 77.5014 117.084 81.4125 108.87C85.3235 100.657 90.799 93.813 97.8388 88.3375C105.009 82.7317 113.483 78.5599 123.261 75.8222C133.169 72.9541 144.054 71.52 155.918 71.52C170.128 71.52 182.383 73.4755 192.682 77.3866C203.111 81.2976 211.324 86.9035 217.321 94.2041C223.318 101.374 226.838 110.109 227.881 120.408H202.068C200.373 114.933 197.505 110.239 193.464 106.328C189.553 102.287 184.468 99.2232 178.211 97.1374C171.953 95.0515 164.522 94.0085 155.918 94.0085C145.228 94.0085 135.841 95.7033 127.758 99.0929C119.676 102.352 113.418 107.241 108.985 113.759C104.553 120.147 102.337 128.1 102.337 137.617C102.337 147.003 104.553 154.89 108.985 161.278C113.418 167.667 119.676 172.555 127.758 175.945C135.841 179.204 145.228 180.834 155.918 180.834C164.522 180.834 171.888 179.791 178.015 177.705C184.273 175.619 189.357 172.62 193.268 168.709C197.31 164.798 200.243 160.236 202.068 155.021H227.881Z" fill="#FFA05C"/>
</g>
<g style="mix-blend-mode:multiply">
<path d="M339.4 157.953H365.799C366.321 162.386 368.342 166.427 371.861 170.077C375.512 173.597 380.27 176.4 386.137 178.486C392.003 180.442 398.587 181.419 405.888 181.419C412.536 181.419 418.012 180.702 422.314 179.268C426.616 177.834 429.81 175.814 431.896 173.206C433.982 170.599 435.025 167.47 435.025 163.82C435.025 160.3 433.721 157.627 431.114 155.802C428.506 153.846 424.4 152.282 418.794 151.109C413.188 149.805 405.822 148.501 396.697 147.198C389.526 146.155 382.747 144.721 376.359 142.896C369.971 140.94 364.3 138.463 359.346 135.465C354.523 132.466 350.677 128.816 347.809 124.514C345.071 120.081 343.702 114.866 343.702 108.87C343.702 101.439 345.788 94.9201 349.96 89.3143C354.262 83.7085 360.585 79.3411 368.928 76.2123C377.272 73.0835 387.506 71.519 399.63 71.519C417.881 71.519 431.896 75.4301 441.674 83.2522C451.582 90.9439 456.405 101.569 456.144 115.127H430.723C430.201 107.435 426.942 101.895 420.945 98.5052C415.079 95.1157 407.648 93.4209 398.652 93.4209C390.309 93.4209 383.399 94.6594 377.924 97.1364C372.579 99.6134 369.906 103.85 369.906 109.847C369.906 112.194 370.558 114.28 371.861 116.105C373.165 117.8 375.381 119.299 378.51 120.603C381.639 121.906 385.876 123.145 391.221 124.318C396.566 125.491 403.215 126.665 411.167 127.838C418.598 128.881 425.312 130.315 431.309 132.14C437.437 133.835 442.651 136.116 446.954 138.985C451.386 141.722 454.776 145.242 457.122 149.544C459.469 153.846 460.642 159.126 460.642 165.384C460.642 173.076 458.621 179.79 454.58 185.526C450.669 191.132 444.542 195.499 436.198 198.628C427.985 201.757 417.295 203.321 404.128 203.321C394.741 203.321 386.463 202.343 379.292 200.388C372.122 198.302 365.93 195.564 360.715 192.175C355.5 188.785 351.263 185.07 348.004 181.028C344.745 176.987 342.398 172.945 340.964 168.904C339.661 164.863 339.139 161.212 339.4 157.953Z" fill="#93E4E7"/>
</g>
<g style="mix-blend-mode:multiply">
<path d="M441.936 157.953H468.335C468.857 162.386 470.877 166.427 474.397 170.077C478.048 173.597 482.806 176.4 488.673 178.486C494.539 180.442 501.123 181.419 508.423 181.419C515.072 181.419 520.548 180.702 524.85 179.268C529.152 177.834 532.346 175.814 534.432 173.206C536.518 170.599 537.561 167.47 537.561 163.82C537.561 160.3 536.257 157.627 533.65 155.802C531.042 153.846 526.936 152.282 521.33 151.109C515.724 149.805 508.358 148.501 499.232 147.198C492.062 146.155 485.283 144.721 478.895 142.896C472.507 140.94 466.836 138.463 461.882 135.465C457.058 132.466 453.212 128.816 450.344 124.514C447.607 120.081 446.238 114.866 446.238 108.87C446.238 101.439 448.324 94.9201 452.495 89.3143C456.798 83.7085 463.12 79.3411 471.464 76.2123C479.808 73.0835 490.041 71.519 502.166 71.519C520.417 71.519 534.432 75.4301 544.209 83.2522C554.117 90.9439 558.941 101.569 558.68 115.127H533.259C532.737 107.435 529.478 101.895 523.481 98.5052C517.614 95.1157 510.183 93.4209 501.188 93.4209C492.844 93.4209 485.935 94.6594 480.459 97.1364C475.114 99.6134 472.442 103.85 472.442 109.847C472.442 112.194 473.094 114.28 474.397 116.105C475.701 117.8 477.917 119.299 481.046 120.603C484.175 121.906 488.412 123.145 493.757 124.318C499.102 125.491 505.751 126.665 513.703 127.838C521.134 128.881 527.848 130.315 533.845 132.14C539.972 133.835 545.187 136.116 549.489 138.985C553.922 141.722 557.311 145.242 559.658 149.544C562.005 153.846 563.178 159.126 563.178 165.384C563.178 173.076 561.157 179.79 557.116 185.526C553.205 191.132 547.078 195.499 538.734 198.628C530.521 201.757 519.831 203.321 506.663 203.321C497.277 203.321 488.999 202.343 481.828 200.388C474.658 198.302 468.466 195.564 463.251 192.175C458.036 188.785 453.799 185.07 450.54 181.028C447.281 176.987 444.934 172.945 443.5 168.904C442.196 164.863 441.675 161.212 441.936 157.953Z" fill="#43D4DA"/>
</g>
<g style="mix-blend-mode:multiply">
<path d="M233.406 126.273H333.725V147.979H233.406V126.273ZM329.423 74.0607H355.431V200.583H329.423V74.0607ZM210.527 74.0607H236.535V200.583H210.527V74.0607Z" fill="#43D4DA"/>
</g>
<g style="mix-blend-mode:multiply">
<path d="M675.879 174.77L667.666 178.094V74.0607H693.675V200.583H667.666L565.393 100.656L573.606 97.3314V200.583H547.597V74.0607H573.606L675.879 174.77Z" fill="#FFA05C"/>
</g>
</svg>
