<?xml version="1.0" encoding="utf-8"?>
<!-- Generator: Adobe Illustrator 17.1.0, SVG Export Plug-In . SVG Version: 6.00 Build 0)  -->
<!DOCTYPE svg PUBLIC "-//W3C//DTD SVG 1.1//EN" "http://www.w3.org/Graphics/SVG/1.1/DTD/svg11.dtd">
<svg version="1.1" xmlns="http://www.w3.org/2000/svg" xmlns:xlink="http://www.w3.org/1999/xlink" x="0px" y="0px"
	 viewBox="0 0 134.3 154" enable-background="new 0 0 134.3 154" xml:space="preserve">
<g id="Layer_1" display="none">
	<g display="inline">
		<polygon fill="none" stroke="#000000" stroke-width="9.5074" stroke-miterlimit="10" points="130.1,-35 -31.5,-35 -31.5,217.1 
			164.2,217.1 164.2,-8.7 		"/>
		<g>
			<rect x="-11.2" y="-17.8" width="93.6" height="11.1"/>
			<rect x="-11.2" y="0.4" width="93.6" height="11.1"/>
			<rect x="-11.2" y="18.6" width="93.6" height="11.1"/>
			<rect x="-11.2" y="36.7" width="155" height="11.1"/>
			<rect x="-11.2" y="54.9" width="155" height="11.1"/>
			<rect x="-11.2" y="73.1" width="155" height="11.1"/>
			<rect x="-11.2" y="91.3" width="155" height="11.1"/>
			<rect x="-11.2" y="109.5" width="155" height="11.1"/>
			<rect x="-11.2" y="127.7" width="155" height="11.1"/>
			<rect x="-11.2" y="145.8" width="155" height="11.1"/>
			<rect x="-11.2" y="164" width="155" height="11.1"/>
			<rect x="-11.2" y="188.8" width="155" height="11.1"/>
		</g>
	</g>
</g>
<g id="Layer_2" display="none">
	<g display="inline">
		<g>
			<rect x="-59.8" y="53.1" width="102.2" height="7.3"/>
			<rect x="-59.8" y="69.1" width="102.2" height="7.3"/>
			<rect x="-59.8" y="85" width="102.2" height="7.3"/>
			<rect x="-59.8" y="101" width="102.2" height="7.3"/>
			<rect x="-59.8" y="116.9" width="102.2" height="7.3"/>
			<rect x="-59.8" y="132.9" width="102.2" height="7.3"/>
			<rect x="-59.8" y="148.8" width="102.2" height="7.3"/>
			<rect x="-59.8" y="164.8" width="102.2" height="7.3"/>
			<rect x="-59.8" y="5.3" width="62.1" height="7.3"/>
			<rect x="-59.8" y="21.3" width="102.2" height="7.3"/>
			<rect x="-59.8" y="37.2" width="102.2" height="7.3"/>
		</g>
		<g>
			<rect x="78.2" y="53.1" width="102.2" height="7.3"/>
			<rect x="78.2" y="69.1" width="102.2" height="7.3"/>
			<rect x="78.2" y="85" width="102.2" height="7.3"/>
			<rect x="78.2" y="101" width="102.2" height="7.3"/>
			<rect x="78.2" y="116.9" width="102.2" height="7.3"/>
			<rect x="78.2" y="132.9" width="102.2" height="7.3"/>
			<rect x="78.2" y="148.8" width="102.2" height="7.3"/>
			<rect x="78.2" y="164.8" width="102.2" height="7.3"/>
			<rect x="78.2" y="21.3" width="102.2" height="7.3"/>
			<rect x="78.2" y="37.2" width="102.2" height="7.3"/>
			<rect x="78.2" y="5.3" width="62.1" height="7.3"/>
		</g>
		<rect x="-77.7" y="-15.1" fill="none" stroke="#000000" stroke-width="9.5074" stroke-miterlimit="10" width="138" height="208"/>
		<rect x="60.3" y="-15.1" fill="none" stroke="#000000" stroke-width="9.5074" stroke-miterlimit="10" width="138" height="208"/>
	</g>
	<g display="inline">
		<g>
			<polygon fill="none" stroke="#000000" stroke-width="9.5074" stroke-miterlimit="10" points="71.6,-32.4 60.3,-20.6 46.6,-32.4 
				-97.2,-32.4 -97.2,210.1 48.6,210.1 60.3,198.9 73.6,210.1 217.7,210.1 217.7,-32.4 			"/>
		</g>
	</g>
</g>
<g id="Layer_3" display="none">
	<g display="inline">
		<path d="M57.6,102.6l-0.2-2.3c-0.5-4.8,1.1-10.1,5.5-15.5c4-4.7,6.3-8.2,6.3-12.2c0-4.6-2.9-7.6-8.5-7.7c-3.2,0-6.8,1.1-9,2.8
			L49.6,62c2.9-2.1,8-3.6,12.8-3.6c10.3,0,14.9,6.3,14.9,13.1c0,6.1-3.4,10.5-7.7,15.5c-3.9,4.6-5.4,8.6-5.1,13.1l0.1,2.3H57.6z
			 M55.7,115.1c0-3.3,2.2-5.6,5.4-5.6c3.1,0,5.3,2.3,5.3,5.6c0,3.1-2.1,5.5-5.4,5.5C57.8,120.6,55.7,118.2,55.7,115.1z"/>
	</g>
	
		<circle display="inline" fill="none" stroke="#000000" stroke-width="9.5074" stroke-miterlimit="10" cx="63.4" cy="89.5" r="55.7"/>
</g>
<g id="Layer_4" display="none">
	<g display="inline">
		<g>
			<g>
				<path d="M67.3,57.2c0.1,2.9-2.1,5.3-5.5,5.3c-3,0-5.2-2.4-5.2-5.3c0-3.1,2.3-5.4,5.4-5.4C65.2,51.8,67.3,54.1,67.3,57.2z
					 M57.7,118.1V70.6h8.7v47.6H57.7z"/>
			</g>
		</g>
		<circle fill="none" stroke="#000000" stroke-width="11.1353" stroke-miterlimit="10" cx="61.9" cy="85" r="55.7"/>
	</g>
</g>
<g id="Layer_5" display="none">
	<g display="inline">
		<path fill="#FFFFFF" d="M104.4,200.5c5.4-0.8,10.9-1.2,16.2-2.3c16.3-3.3,28.2-13.5,39.7-24.6c7.1-6.8,8.1-14,2.1-21.7
			c-9.4-11.9-20.7-21.7-34.1-28.8c-8.5-4.5-17.1-3.8-24.6,2.7c-4.2,3.6-8.1,7.4-12.1,11.2c-7,6.8-13.5,8.2-22.3,4
			c-4.7-2.3-9.3-5.2-13.4-8.5C43.3,122,32.5,109.7,23.6,96c-3.9-5.9-6.8-12.5-9.2-19.2c-2.9-8.2-0.1-14.7,6.9-20.1
			c4.5-3.4,8.8-7.1,13.1-10.8c7-6.1,9-14,6.4-22.6c-1.6-5.2-3.9-10.4-6.8-14.9C28.6,0,23-8.3,16.5-15.8c-5.4-6.3-12.4-7.4-18.4-3.1
			c-12.6,9-24.6,18.9-31.3,33.5C-42,34-42.3,53.9-35.3,73.5c16.9,47,48.4,82.5,89,110.3C68.8,194.1,85.8,200,104.4,200.5z"/>
		<path d="M104.4,200.3c-17.9,0-35.9-6.4-50.6-16.5c-40.6-27.9-72.2-63.4-89-110.3c-7-19.6-6.8-39.5,2.1-58.8
			C-26.5-0.1-14.5-9.9-1.9-18.9c6-4.3,13-3.2,18.4,3.1C23-8.3,28.6,0,34,8.3c2.9,4.5,5.2,9.7,6.8,14.9c2.7,8.7,0.7,16.5-6.4,22.6
			c-4.3,3.7-8.6,7.3-13.1,10.8c-7,5.4-9.8,11.9-6.9,20.1c2.3,6.7,5.3,13.3,9.2,19.2c9,13.7,19.7,26,32.4,36.4
			c4.1,3.3,8.7,6.3,13.4,8.5c8.8,4.3,15.2,2.8,22.3-4c3.9-3.8,7.9-7.6,12.1-11.2c7.5-6.5,16.1-7.2,24.6-2.7
			c13.4,7.1,24.7,16.9,34.1,28.8c6.1,7.7,5,14.9-2.1,21.7c-7.9,7.5-16.1,14.9-25.9,19.8C124.9,198.2,114.7,200.3,104.4,200.3z"/>
	</g>
</g>
<g id="Layer_6" display="none">
	<g display="inline">
		<g>
			<circle fill="none" stroke="#000000" stroke-width="11.1353" stroke-miterlimit="10" cx="34.2" cy="70.9" r="55"/>
		</g>
		<rect x="98.3" y="88.1" transform="matrix(0.6194 -0.7851 0.7851 0.6194 -61.2391 138.3085)" width="27.4" height="88.3"/>
	</g>
</g>
<g id="Layer_7" display="none">
	<polygon display="inline" fill="none" stroke="#000000" stroke-width="11.1353" stroke-miterlimit="10" points="110.7,168.8 
		22.7,168.8 6.7,0.2 124,0.2 	"/>
	
		<rect x="5" y="-20.7" display="inline" fill="none" stroke="#000000" stroke-width="11.1353" stroke-miterlimit="10" width="120.7" height="20.7"/>
	
		<rect x="41" y="-44.5" display="inline" fill="none" stroke="#000000" stroke-width="11.1353" stroke-miterlimit="10" width="48.7" height="18.9"/>
	
		<line display="inline" stroke="#000000" stroke-width="11.1353" stroke-miterlimit="10" x1="29.7" y1="12.2" x2="44.2" y2="157.2"/>
	
		<line display="inline" stroke="#000000" stroke-width="11.1353" stroke-miterlimit="10" x1="65.3" y1="12.2" x2="65.3" y2="156.2"/>
	<line display="inline" stroke="#000000" stroke-width="11.1353" stroke-miterlimit="10" x1="102.5" y1="12.2" x2="88" y2="157.2"/>
</g>
<g id="Layer_8" display="none">
	<g display="inline">
		<rect x="57.6" y="30.5" transform="matrix(-8.604464e-03 1 -1 -8.604464e-03 112.6297 -11.8307)" width="9.1" height="38.8"/>
	</g>
</g>
<g id="Layer_9" display="none">
	<g display="inline">
		<rect x="-45.9" y="114.6" width="217.3" height="72.5"/>
		<g>
			
				<rect x="-16.2" y="-35.1" fill="none" stroke="#000000" stroke-width="9.5074" stroke-miterlimit="10" width="157.1" height="149.7"/>
			<rect x="-1.4" y="-0.7" width="127.6" height="9.6"/>
			<rect x="-1.4" y="23.1" width="127.6" height="9.6"/>
			<rect x="-1.4" y="46.8" width="127.6" height="9.6"/>
			<rect x="-1.4" y="70.5" width="127.6" height="9.6"/>
		</g>
		<rect x="-18.7" y="164.5" width="163" height="54.4"/>
	</g>
</g>
<g id="Layer_10">
	<polygon stroke="#000000" stroke-width="6" stroke-linejoin="round" stroke-miterlimit="10" points="130.7,40.6 130.6,113.8 
		67,150.3 3.7,113.5 3.9,40.3 67.4,3.8 	"/>
</g>
</svg>
