<?xml version="1.0" encoding="utf-8"?>
<!-- Generator: Adobe Illustrator 17.1.0, SVG Export Plug-In . SVG Version: 6.00 Build 0)  -->
<!DOCTYPE svg PUBLIC "-//W3C//DTD SVG 1.1//EN" "http://www.w3.org/Graphics/SVG/1.1/DTD/svg11.dtd">
<svg version="1.1" xmlns="http://www.w3.org/2000/svg" xmlns:xlink="http://www.w3.org/1999/xlink" x="0px" y="0px"
	 viewBox="0 0 127.6 123.3" enable-background="new 0 0 127.6 123.3" xml:space="preserve">
<g id="Layer_1" display="none">
	<g display="inline">
		<polygon fill="none" stroke="#000000" stroke-width="9.5074" stroke-miterlimit="10" points="131.5,-58.1 -30.1,-58.1 
			-30.1,194.1 165.7,194.1 165.7,-31.7 		"/>
		<g>
			<rect x="-9.7" y="-40.9" width="93.6" height="11.1"/>
			<rect x="-9.7" y="-22.7" width="93.6" height="11.1"/>
			<rect x="-9.7" y="-4.5" width="93.6" height="11.1"/>
			<rect x="-9.7" y="13.7" width="155" height="11.1"/>
			<rect x="-9.7" y="31.9" width="155" height="11.1"/>
			<rect x="-9.7" y="50" width="155" height="11.1"/>
			<rect x="-9.7" y="68.2" width="155" height="11.1"/>
			<rect x="-9.7" y="86.4" width="155" height="11.1"/>
			<rect x="-9.7" y="104.6" width="155" height="11.1"/>
			<rect x="-9.7" y="122.8" width="155" height="11.1"/>
			<rect x="-9.7" y="141" width="155" height="11.1"/>
			<rect x="-9.7" y="165.8" width="155" height="11.1"/>
		</g>
	</g>
</g>
<g id="Layer_2" display="none">
	<g display="inline">
		<g>
			<rect x="-58.4" y="30.1" width="102.2" height="7.3"/>
			<rect x="-58.4" y="46" width="102.2" height="7.3"/>
			<rect x="-58.4" y="62" width="102.2" height="7.3"/>
			<rect x="-58.4" y="77.9" width="102.2" height="7.3"/>
			<rect x="-58.4" y="93.9" width="102.2" height="7.3"/>
			<rect x="-58.4" y="109.8" width="102.2" height="7.3"/>
			<rect x="-58.4" y="125.8" width="102.2" height="7.3"/>
			<rect x="-58.4" y="141.7" width="102.2" height="7.3"/>
			<rect x="-58.4" y="-17.8" width="62.1" height="7.3"/>
			<rect x="-58.4" y="-1.8" width="102.2" height="7.3"/>
			<rect x="-58.4" y="14.1" width="102.2" height="7.3"/>
		</g>
		<g>
			<rect x="79.6" y="30.1" width="102.2" height="7.3"/>
			<rect x="79.6" y="46" width="102.2" height="7.3"/>
			<rect x="79.6" y="62" width="102.2" height="7.3"/>
			<rect x="79.6" y="77.9" width="102.2" height="7.3"/>
			<rect x="79.6" y="93.9" width="102.2" height="7.3"/>
			<rect x="79.6" y="109.8" width="102.2" height="7.3"/>
			<rect x="79.6" y="125.8" width="102.2" height="7.3"/>
			<rect x="79.6" y="141.7" width="102.2" height="7.3"/>
			<rect x="79.6" y="-1.8" width="102.2" height="7.3"/>
			<rect x="79.6" y="14.1" width="102.2" height="7.3"/>
			<rect x="79.6" y="-17.8" width="62.1" height="7.3"/>
		</g>
		<rect x="-76.3" y="-38.2" fill="none" stroke="#000000" stroke-width="9.5074" stroke-miterlimit="10" width="138" height="208"/>
		<rect x="61.7" y="-38.2" fill="none" stroke="#000000" stroke-width="9.5074" stroke-miterlimit="10" width="138" height="208"/>
	</g>
	<g display="inline">
		<g>
			<polygon fill="none" stroke="#000000" stroke-width="9.5074" stroke-miterlimit="10" points="73,-55.5 61.7,-43.6 48,-55.5 
				-95.7,-55.5 -95.7,187.1 50,187.1 61.7,175.9 75,187.1 219.2,187.1 219.2,-55.5 			"/>
		</g>
	</g>
</g>
<g id="Layer_3" display="none">
	<g display="inline">
		<path d="M59.1,79.5l-0.2-2.3c-0.5-4.8,1.1-10.1,5.5-15.5c4-4.7,6.3-8.2,6.3-12.2c0-4.6-2.9-7.6-8.5-7.7c-3.2,0-6.8,1.1-9,2.8
			L51,38.9c2.9-2.1,8-3.6,12.8-3.6c10.3,0,14.9,6.3,14.9,13.1c0,6.1-3.4,10.5-7.7,15.5c-3.9,4.6-5.4,8.6-5.1,13.1l0.1,2.3H59.1z
			 M57.1,92c0-3.3,2.2-5.6,5.4-5.6c3.1,0,5.3,2.3,5.3,5.6c0,3.1-2.1,5.5-5.4,5.5C59.2,97.5,57.1,95.1,57.1,92z"/>
	</g>
	
		<circle display="inline" fill="none" stroke="#000000" stroke-width="9.5074" stroke-miterlimit="10" cx="64.9" cy="66.4" r="55.7"/>
</g>
<g id="Layer_4">
	<g>
		<g>
			<g>
				<path d="M68.7,34.1c0.1,2.9-2.1,5.3-5.5,5.3c-3,0-5.2-2.4-5.2-5.3c0-3.1,2.3-5.4,5.4-5.4C66.7,28.7,68.7,31.1,68.7,34.1z
					 M59.1,95.1V47.5h8.7v47.6H59.1z"/>
			</g>
		</g>
		<circle fill="none" stroke="#000000" stroke-width="11.1353" stroke-miterlimit="10" cx="63.4" cy="61.9" r="55.7"/>
	</g>
</g>
<g id="Layer_5" display="none">
	<g display="inline">
		<path fill="#FFFFFF" d="M105.9,177.4c5.4-0.8,10.9-1.2,16.2-2.3c16.3-3.3,28.2-13.5,39.7-24.6c7.1-6.8,8.1-14,2.1-21.7
			c-9.4-11.9-20.7-21.7-34.1-28.8c-8.5-4.5-17.1-3.8-24.6,2.7c-4.2,3.6-8.1,7.4-12.1,11.2c-7,6.8-13.5,8.2-22.3,4
			c-4.7-2.3-9.3-5.2-13.4-8.5C44.8,98.9,34,86.6,25,72.9c-3.9-5.9-6.8-12.5-9.2-19.2C13,45.4,15.8,39,22.8,33.6
			c4.5-3.4,8.8-7.1,13.1-10.8c7-6.1,9-14,6.4-22.6c-1.6-5.2-3.9-10.4-6.8-14.9c-5.4-8.4-11-16.7-17.5-24.2
			C12.5-45.2,5.5-46.3-0.5-42c-12.6,9-24.6,18.9-31.3,33.5c-8.8,19.3-9.1,39.3-2.1,58.8c16.9,47,48.4,82.5,89,110.3
			C70.3,171.1,87.2,176.9,105.9,177.4z"/>
		<path d="M105.9,177.2c-17.9,0-35.9-6.4-50.6-16.5C14.6,132.9-17,97.4-33.8,50.4c-7-19.6-6.8-39.5,2.1-58.8
			C-25.1-23.1-13.1-33-0.5-42c6-4.3,13-3.2,18.4,3.1c6.5,7.5,12.1,15.8,17.5,24.2c2.9,4.5,5.2,9.7,6.8,14.9
			c2.7,8.7,0.7,16.5-6.4,22.6c-4.3,3.7-8.6,7.3-13.1,10.8c-7,5.4-9.8,11.9-6.9,20.1c2.3,6.7,5.3,13.3,9.2,19.2
			c9,13.7,19.7,26,32.4,36.4c4.1,3.3,8.7,6.3,13.4,8.5c8.8,4.3,15.2,2.8,22.3-4c3.9-3.8,7.9-7.6,12.1-11.2
			c7.5-6.5,16.1-7.2,24.6-2.7c13.4,7.1,24.7,16.9,34.1,28.8c6.1,7.7,5,14.9-2.1,21.7c-7.9,7.5-16.1,14.9-25.9,19.8
			C126.4,175.1,116.1,177.2,105.9,177.2z"/>
	</g>
</g>
<g id="Layer_6" display="none">
	<g display="inline">
		<g>
			<circle fill="none" stroke="#000000" stroke-width="11.1353" stroke-miterlimit="10" cx="35.6" cy="47.8" r="55"/>
		</g>
		<rect x="99.8" y="65.1" transform="matrix(0.6194 -0.7851 0.7851 0.6194 -42.5855 130.6598)" width="27.4" height="88.3"/>
	</g>
</g>
<g id="Layer_7" display="none">
	<polygon display="inline" fill="none" stroke="#000000" stroke-width="11.1353" stroke-miterlimit="10" points="112.1,145.8 
		24.1,145.8 8.1,-22.9 125.4,-22.9 	"/>
	
		<rect x="6.4" y="-43.8" display="inline" fill="none" stroke="#000000" stroke-width="11.1353" stroke-miterlimit="10" width="120.7" height="20.7"/>
	
		<rect x="42.4" y="-67.5" display="inline" fill="none" stroke="#000000" stroke-width="11.1353" stroke-miterlimit="10" width="48.7" height="18.9"/>
	
		<line display="inline" stroke="#000000" stroke-width="11.1353" stroke-miterlimit="10" x1="31.2" y1="-10.9" x2="45.7" y2="134.1"/>
	
		<line display="inline" stroke="#000000" stroke-width="11.1353" stroke-miterlimit="10" x1="66.8" y1="-10.9" x2="66.8" y2="133.1"/>
	
		<line display="inline" stroke="#000000" stroke-width="11.1353" stroke-miterlimit="10" x1="104" y1="-10.9" x2="89.5" y2="134.1"/>
</g>
<g id="Layer_8" display="none">
	<g display="inline">
		<rect x="59.1" y="7.4" transform="matrix(-8.604464e-03 1 -1 -8.604464e-03 91.0186 -36.5302)" width="9.1" height="38.8"/>
	</g>
</g>
<g id="Layer_9" display="none">
	<g display="inline">
		<rect x="-44.4" y="91.5" width="217.3" height="72.5"/>
		<g>
			
				<rect x="-14.8" y="-58.2" fill="none" stroke="#000000" stroke-width="9.5074" stroke-miterlimit="10" width="157.1" height="149.7"/>
			<rect x="0" y="-23.7" width="127.6" height="9.6"/>
			<rect x="0" y="0" width="127.6" height="9.6"/>
			<rect x="0" y="23.7" width="127.6" height="9.6"/>
			<rect x="0" y="47.5" width="127.6" height="9.6"/>
		</g>
		<rect x="-17.3" y="141.5" width="163" height="54.4"/>
	</g>
</g>
</svg>
