<?xml version="1.0" encoding="utf-8"?>
<!-- Generator: Adobe Illustrator 17.1.0, SVG Export Plug-In . SVG Version: 6.00 Build 0)  -->
<!DOCTYPE svg PUBLIC "-//W3C//DTD SVG 1.1//EN" "http://www.w3.org/Graphics/SVG/1.1/DTD/svg11.dtd">
<svg version="1.1" xmlns="http://www.w3.org/2000/svg" xmlns:xlink="http://www.w3.org/1999/xlink" x="0px" y="0px"
	 viewBox="0 0 184 165.4" enable-background="new 0 0 184 165.4" xml:space="preserve">
<g id="Layer_1" display="none">
	<g display="inline">
		<polygon fill="none" stroke="#000000" stroke-width="9.5074" stroke-miterlimit="10" points="157.7,-44 -3.9,-44 -3.9,208.1 
			191.9,208.1 191.9,-17.7 		"/>
		<g>
			<rect x="16.5" y="-26.8" width="93.6" height="11.1"/>
			<rect x="16.5" y="-8.6" width="93.6" height="11.1"/>
			<rect x="16.5" y="9.6" width="93.6" height="11.1"/>
			<rect x="16.5" y="27.8" width="155" height="11.1"/>
			<rect x="16.5" y="45.9" width="155" height="11.1"/>
			<rect x="16.5" y="64.1" width="155" height="11.1"/>
			<rect x="16.5" y="82.3" width="155" height="11.1"/>
			<rect x="16.5" y="100.5" width="155" height="11.1"/>
			<rect x="16.5" y="118.7" width="155" height="11.1"/>
			<rect x="16.5" y="136.9" width="155" height="11.1"/>
			<rect x="16.5" y="155" width="155" height="11.1"/>
			<rect x="16.5" y="179.9" width="155" height="11.1"/>
		</g>
	</g>
</g>
<g id="Layer_2" display="none">
	<g display="inline">
		<g>
			<rect x="-32.2" y="44.2" width="102.2" height="7.3"/>
			<rect x="-32.2" y="60.1" width="102.2" height="7.3"/>
			<rect x="-32.2" y="76.1" width="102.2" height="7.3"/>
			<rect x="-32.2" y="92" width="102.2" height="7.3"/>
			<rect x="-32.2" y="108" width="102.2" height="7.3"/>
			<rect x="-32.2" y="123.9" width="102.2" height="7.3"/>
			<rect x="-32.2" y="139.9" width="102.2" height="7.3"/>
			<rect x="-32.2" y="155.8" width="102.2" height="7.3"/>
			<rect x="-32.2" y="-3.7" width="62.1" height="7.3"/>
			<rect x="-32.2" y="12.3" width="102.2" height="7.3"/>
			<rect x="-32.2" y="28.2" width="102.2" height="7.3"/>
		</g>
		<g>
			<rect x="105.8" y="44.2" width="102.2" height="7.3"/>
			<rect x="105.8" y="60.1" width="102.2" height="7.3"/>
			<rect x="105.8" y="76.1" width="102.2" height="7.3"/>
			<rect x="105.8" y="92" width="102.2" height="7.3"/>
			<rect x="105.8" y="108" width="102.2" height="7.3"/>
			<rect x="105.8" y="123.9" width="102.2" height="7.3"/>
			<rect x="105.8" y="139.9" width="102.2" height="7.3"/>
			<rect x="105.8" y="155.8" width="102.2" height="7.3"/>
			<rect x="105.8" y="12.3" width="102.2" height="7.3"/>
			<rect x="105.8" y="28.2" width="102.2" height="7.3"/>
			<rect x="105.8" y="-3.7" width="62.1" height="7.3"/>
		</g>
		<rect x="-50" y="-24.1" fill="none" stroke="#000000" stroke-width="9.5074" stroke-miterlimit="10" width="138" height="208"/>
		<rect x="88" y="-24.1" fill="none" stroke="#000000" stroke-width="9.5074" stroke-miterlimit="10" width="138" height="208"/>
	</g>
	<g display="inline">
		<g>
			<polygon fill="none" stroke="#000000" stroke-width="9.5074" stroke-miterlimit="10" points="99.3,-41.4 88,-29.5 74.3,-41.4 
				-69.5,-41.4 -69.5,201.2 76.3,201.2 88,190 101.3,201.2 245.4,201.2 245.4,-41.4 			"/>
		</g>
	</g>
</g>
<g id="Layer_3" display="none">
	<g display="inline">
		<path d="M85.3,93.6l-0.2-2.3c-0.5-4.8,1.1-10.1,5.5-15.5c4-4.7,6.3-8.2,6.3-12.2c0-4.6-2.9-7.6-8.5-7.7c-3.2,0-6.8,1.1-9,2.8
			L77.3,53c2.9-2.1,8-3.6,12.8-3.6c10.3,0,14.9,6.3,14.9,13.1c0,6.1-3.4,10.5-7.7,15.5c-3.9,4.6-5.4,8.6-5.1,13.1l0.1,2.3H85.3z
			 M83.3,106.1c0-3.3,2.2-5.6,5.4-5.6c3.1,0,5.3,2.3,5.3,5.6c0,3.1-2.1,5.5-5.4,5.5C85.5,111.6,83.3,109.2,83.3,106.1z"/>
	</g>
	
		<circle display="inline" fill="none" stroke="#000000" stroke-width="9.5074" stroke-miterlimit="10" cx="91.1" cy="80.5" r="55.7"/>
</g>
<g id="Layer_4" display="none">
	<g display="inline">
		<g>
			<g>
				<path d="M95,48.2c0.1,2.9-2.1,5.3-5.5,5.3c-3,0-5.2-2.4-5.2-5.3c0-3.1,2.3-5.4,5.4-5.4C92.9,42.8,95,45.2,95,48.2z M85.3,109.1
					V61.6H94v47.6H85.3z"/>
			</g>
		</g>
		<circle fill="none" stroke="#000000" stroke-width="11.1353" stroke-miterlimit="10" cx="89.6" cy="76" r="55.7"/>
	</g>
</g>
<g id="Layer_5" display="none">
	<g display="inline">
		<path fill="#FFFFFF" d="M132.1,191.5c5.4-0.8,10.9-1.2,16.2-2.3c16.3-3.3,28.2-13.5,39.7-24.6c7.1-6.8,8.1-14,2.1-21.7
			c-9.4-11.9-20.7-21.7-34.1-28.8c-8.5-4.5-17.1-3.8-24.6,2.7c-4.2,3.6-8.1,7.4-12.1,11.2c-7,6.8-13.5,8.2-22.3,4
			c-4.7-2.3-9.3-5.2-13.4-8.5C71,113,60.2,100.7,51.2,87c-3.9-5.9-6.8-12.5-9.2-19.2C39.2,59.5,42,53,49,47.7
			c4.5-3.4,8.8-7.1,13.1-10.8c7-6.1,9-14,6.4-22.6c-1.6-5.2-3.9-10.4-6.8-14.9c-5.4-8.4-11-16.7-17.5-24.2
			c-5.4-6.3-12.4-7.4-18.4-3.1C13.1-18.9,1.2-9-5.5,5.6c-8.8,19.3-9.1,39.3-2.1,58.8c16.9,47,48.4,82.5,89,110.3
			C96.5,185.2,113.4,191,132.1,191.5z"/>
		<path d="M132.1,191.3c-17.9,0-35.9-6.4-50.6-16.5C40.8,147,9.3,111.5-7.6,64.5c-7-19.6-6.8-39.5,2.1-58.8
			C1.2-9,13.1-18.9,25.8-27.9c6-4.3,13-3.2,18.4,3.1C50.6-17.3,56.3-9,61.7-0.6c2.9,4.5,5.2,9.7,6.8,14.9c2.7,8.7,0.7,16.5-6.4,22.6
			c-4.3,3.7-8.6,7.3-13.1,10.8c-7,5.4-9.8,11.9-6.9,20.1c2.3,6.7,5.3,13.3,9.2,19.2c9,13.7,19.7,26,32.4,36.4
			c4.1,3.3,8.7,6.3,13.4,8.5c8.8,4.3,15.2,2.8,22.3-4c3.9-3.8,7.9-7.6,12.1-11.2c7.5-6.5,16.1-7.2,24.6-2.7
			c13.4,7.1,24.7,16.9,34.1,28.8c6.1,7.7,5,14.9-2.1,21.7c-7.9,7.5-16.1,14.9-25.9,19.8C152.6,189.2,142.4,191.3,132.1,191.3z"/>
	</g>
</g>
<g id="Layer_6">
	<g>
		<g>
			<circle fill="none" stroke="#000000" stroke-width="11.1353" stroke-miterlimit="10" cx="61.8" cy="61.9" r="55"/>
		</g>
		<rect x="126" y="79.2" transform="matrix(0.6194 -0.7851 0.7851 0.6194 -43.6609 156.6123)" width="27.4" height="88.3"/>
	</g>
</g>
<g id="Layer_7" display="none">
	<polygon display="inline" fill="none" stroke="#000000" stroke-width="11.1353" stroke-miterlimit="10" points="138.3,159.8 
		50.3,159.8 34.3,-8.8 151.7,-8.8 	"/>
	
		<rect x="32.7" y="-29.7" display="inline" fill="none" stroke="#000000" stroke-width="11.1353" stroke-miterlimit="10" width="120.7" height="20.7"/>
	
		<rect x="68.7" y="-53.5" display="inline" fill="none" stroke="#000000" stroke-width="11.1353" stroke-miterlimit="10" width="48.7" height="18.9"/>
	<line display="inline" stroke="#000000" stroke-width="11.1353" stroke-miterlimit="10" x1="57.4" y1="3.2" x2="71.9" y2="148.2"/>
	<line display="inline" stroke="#000000" stroke-width="11.1353" stroke-miterlimit="10" x1="93" y1="3.2" x2="93" y2="147.2"/>
	
		<line display="inline" stroke="#000000" stroke-width="11.1353" stroke-miterlimit="10" x1="130.2" y1="3.2" x2="115.7" y2="148.2"/>
</g>
<g id="Layer_8" display="none">
	<g display="inline">
		<rect x="85.3" y="21.5" transform="matrix(-8.604464e-03 1 -1 -8.604464e-03 131.5574 -48.551)" width="9.1" height="38.8"/>
	</g>
</g>
<g id="Layer_9" display="none">
	<g display="inline">
		<rect x="-18.2" y="105.6" width="217.3" height="72.5"/>
		<g>
			
				<rect x="11.5" y="-44.1" fill="none" stroke="#000000" stroke-width="9.5074" stroke-miterlimit="10" width="157.1" height="149.7"/>
			<rect x="26.2" y="-9.6" width="127.6" height="9.6"/>
			<rect x="26.2" y="14.1" width="127.6" height="9.6"/>
			<rect x="26.2" y="37.8" width="127.6" height="9.6"/>
			<rect x="26.2" y="61.6" width="127.6" height="9.6"/>
		</g>
		<rect x="9" y="155.6" width="163" height="54.4"/>
	</g>
</g>
</svg>
