<?xml version="1.0" encoding="utf-8"?>
<!-- Generator: Adobe Illustrator 17.1.0, SVG Export Plug-In . SVG Version: 6.00 Build 0)  -->
<!DOCTYPE svg PUBLIC "-//W3C//DTD SVG 1.1//EN" "http://www.w3.org/Graphics/SVG/1.1/DTD/svg11.dtd">
<svg version="1.1" xmlns="http://www.w3.org/2000/svg" xmlns:xlink="http://www.w3.org/1999/xlink" x="0px" y="0px"
	 viewBox="0 0 206.7 261.7" enable-background="new 0 0 206.7 261.7" xml:space="preserve">
<g id="Layer_1">
	<g>
		<polygon fill="none" stroke="#000000" stroke-width="9.5074" stroke-miterlimit="10" points="167.4,4.3 5.8,4.3 5.8,256.4 
			201.6,256.4 201.6,30.7 		"/>
		<g>
			<rect x="26.2" y="21.5" width="93.6" height="11.1"/>
			<rect x="26.2" y="39.7" width="93.6" height="11.1"/>
			<rect x="26.2" y="57.9" width="93.6" height="11.1"/>
			<rect x="26.2" y="76.1" width="155" height="11.1"/>
			<rect x="26.2" y="94.3" width="155" height="11.1"/>
			<rect x="26.2" y="112.4" width="155" height="11.1"/>
			<rect x="26.2" y="130.6" width="155" height="11.1"/>
			<rect x="26.2" y="148.8" width="155" height="11.1"/>
			<rect x="26.2" y="167" width="155" height="11.1"/>
			<rect x="26.2" y="185.2" width="155" height="11.1"/>
			<rect x="26.2" y="203.4" width="155" height="11.1"/>
			<rect x="26.2" y="228.2" width="155" height="11.1"/>
		</g>
	</g>
</g>
<g id="Layer_2" display="none">
	<g display="inline">
		<g>
			<rect x="-22.5" y="92.5" width="102.2" height="7.3"/>
			<rect x="-22.5" y="108.4" width="102.2" height="7.3"/>
			<rect x="-22.5" y="124.4" width="102.2" height="7.3"/>
			<rect x="-22.5" y="140.3" width="102.2" height="7.3"/>
			<rect x="-22.5" y="156.3" width="102.2" height="7.3"/>
			<rect x="-22.5" y="172.2" width="102.2" height="7.3"/>
			<rect x="-22.5" y="188.2" width="102.2" height="7.3"/>
			<rect x="-22.5" y="204.1" width="102.2" height="7.3"/>
			<rect x="-22.5" y="44.6" width="62.1" height="7.3"/>
			<rect x="-22.5" y="60.6" width="102.2" height="7.3"/>
			<rect x="-22.5" y="76.5" width="102.2" height="7.3"/>
		</g>
		<g>
			<rect x="115.5" y="92.5" width="102.2" height="7.3"/>
			<rect x="115.5" y="108.4" width="102.2" height="7.3"/>
			<rect x="115.5" y="124.4" width="102.2" height="7.3"/>
			<rect x="115.5" y="140.3" width="102.2" height="7.3"/>
			<rect x="115.5" y="156.3" width="102.2" height="7.3"/>
			<rect x="115.5" y="172.2" width="102.2" height="7.3"/>
			<rect x="115.5" y="188.2" width="102.2" height="7.3"/>
			<rect x="115.5" y="204.1" width="102.2" height="7.3"/>
			<rect x="115.5" y="60.6" width="102.2" height="7.3"/>
			<rect x="115.5" y="76.5" width="102.2" height="7.3"/>
			<rect x="115.5" y="44.6" width="62.1" height="7.3"/>
		</g>
		<rect x="-40.4" y="24.2" fill="none" stroke="#000000" stroke-width="9.5074" stroke-miterlimit="10" width="138" height="208"/>
		<rect x="97.6" y="24.2" fill="none" stroke="#000000" stroke-width="9.5074" stroke-miterlimit="10" width="138" height="208"/>
	</g>
	<g display="inline">
		<g>
			<polygon fill="none" stroke="#000000" stroke-width="9.5074" stroke-miterlimit="10" points="108.9,6.9 97.6,18.8 83.9,6.9 
				-59.8,6.9 -59.8,249.5 85.9,249.5 97.6,238.3 110.9,249.5 255.1,249.5 255.1,6.9 			"/>
		</g>
	</g>
</g>
<g id="Layer_3" display="none">
	<g display="inline">
		<path d="M95,141.9l-0.2-2.3c-0.5-4.8,1.1-10.1,5.5-15.5c4-4.7,6.3-8.2,6.3-12.2c0-4.6-2.9-7.6-8.5-7.7c-3.2,0-6.8,1.1-9,2.8
			l-2.1-5.6c2.9-2.1,8-3.6,12.8-3.6c10.3,0,14.9,6.3,14.9,13.1c0,6.1-3.4,10.5-7.7,15.5c-3.9,4.6-5.4,8.6-5.1,13.1l0.1,2.3H95z
			 M93,154.4c0-3.3,2.2-5.6,5.4-5.6c3.1,0,5.3,2.3,5.3,5.6c0,3.1-2.1,5.5-5.4,5.5C95.1,159.9,93,157.5,93,154.4z"/>
	</g>
	
		<circle display="inline" fill="none" stroke="#000000" stroke-width="9.5074" stroke-miterlimit="10" cx="100.8" cy="128.8" r="55.7"/>
</g>
<g id="Layer_4" display="none">
	<g display="inline">
		<g>
			<g>
				<path d="M104.6,96.5c0.1,2.9-2.1,5.3-5.5,5.3c-3,0-5.2-2.4-5.2-5.3c0-3.1,2.3-5.4,5.4-5.4C102.6,91.1,104.6,93.5,104.6,96.5z
					 M95,157.5v-47.6h8.7v47.6H95z"/>
			</g>
		</g>
		<circle fill="none" stroke="#000000" stroke-width="11.1353" stroke-miterlimit="10" cx="99.3" cy="124.3" r="55.7"/>
	</g>
</g>
<g id="Layer_5" display="none">
	<g display="inline">
		<path fill="#FFFFFF" d="M141.8,239.8c5.4-0.8,10.9-1.2,16.2-2.3c16.3-3.3,28.2-13.5,39.7-24.6c7.1-6.8,8.1-14,2.1-21.7
			c-9.4-11.9-20.7-21.7-34.1-28.8c-8.5-4.5-17.1-3.8-24.6,2.7c-4.2,3.6-8.1,7.4-12.1,11.2c-7,6.8-13.5,8.2-22.3,4
			c-4.7-2.3-9.3-5.2-13.4-8.5c-12.7-10.4-23.5-22.7-32.4-36.4c-3.9-5.9-6.8-12.5-9.2-19.2c-2.9-8.2-0.1-14.7,6.9-20.1
			c4.5-3.4,8.8-7.1,13.1-10.8c7-6.1,9-14,6.4-22.6c-1.6-5.2-3.9-10.4-6.8-14.9c-5.4-8.4-11-16.7-17.5-24.2
			c-5.4-6.3-12.4-7.4-18.4-3.1c-12.6,9-24.6,18.9-31.3,33.5C-4.7,73.3-5,93.2,2.1,112.8c16.9,47,48.4,82.5,89,110.3
			C106.2,233.5,123.1,239.3,141.8,239.8z"/>
		<path d="M141.8,239.6c-17.9,0-35.9-6.4-50.6-16.5c-40.6-27.9-72.2-63.4-89-110.3c-7-19.6-6.8-39.5,2.1-58.8
			c6.7-14.7,18.6-24.5,31.3-33.5c6-4.3,13-3.2,18.4,3.1c6.5,7.5,12.1,15.8,17.5,24.2c2.9,4.5,5.2,9.7,6.8,14.9
			c2.7,8.7,0.7,16.5-6.4,22.6c-4.3,3.7-8.6,7.3-13.1,10.8c-7,5.4-9.8,11.9-6.9,20.1c2.3,6.7,5.3,13.3,9.2,19.2
			c9,13.7,19.7,26,32.4,36.4c4.1,3.3,8.7,6.3,13.4,8.5c8.8,4.3,15.2,2.8,22.3-4c3.9-3.8,7.9-7.6,12.1-11.2
			c7.5-6.5,16.1-7.2,24.6-2.7c13.4,7.1,24.7,16.9,34.1,28.8c6.1,7.7,5,14.9-2.1,21.7c-7.9,7.5-16.1,14.9-25.9,19.8
			C162.3,237.5,152,239.6,141.8,239.6z"/>
	</g>
</g>
<g id="Layer_6" display="none">
	<g display="inline">
		<g>
			<circle fill="none" stroke="#000000" stroke-width="11.1353" stroke-miterlimit="10" cx="71.5" cy="110.2" r="55"/>
		</g>
		<rect x="135.7" y="127.5" transform="matrix(0.6194 -0.7851 0.7851 0.6194 -77.9096 182.5891)" width="27.4" height="88.3"/>
	</g>
</g>
<g id="Layer_7" display="none">
	<polygon display="inline" fill="none" stroke="#000000" stroke-width="11.1353" stroke-miterlimit="10" points="148,208.2 
		60,208.2 44,39.5 161.3,39.5 	"/>
	
		<rect x="42.3" y="18.6" display="inline" fill="none" stroke="#000000" stroke-width="11.1353" stroke-miterlimit="10" width="120.7" height="20.7"/>
	
		<rect x="78.3" y="-5.1" display="inline" fill="none" stroke="#000000" stroke-width="11.1353" stroke-miterlimit="10" width="48.7" height="18.9"/>
	
		<line display="inline" stroke="#000000" stroke-width="11.1353" stroke-miterlimit="10" x1="67.1" y1="51.5" x2="81.6" y2="196.5"/>
	
		<line display="inline" stroke="#000000" stroke-width="11.1353" stroke-miterlimit="10" x1="102.7" y1="51.5" x2="102.7" y2="195.5"/>
	
		<line display="inline" stroke="#000000" stroke-width="11.1353" stroke-miterlimit="10" x1="139.9" y1="51.5" x2="125.4" y2="196.5"/>
</g>
<g id="Layer_8" display="none">
	<g display="inline">
		<rect x="95" y="69.8" transform="matrix(-8.604464e-03 1 -1 -8.604464e-03 189.6161 -9.4909)" width="9.1" height="38.8"/>
	</g>
</g>
<g id="Layer_9" display="none">
	<g display="inline">
		<rect x="-8.5" y="153.9" width="217.3" height="72.5"/>
		<g>
			
				<rect x="21.1" y="4.2" fill="none" stroke="#000000" stroke-width="9.5074" stroke-miterlimit="10" width="157.1" height="149.7"/>
			<rect x="35.9" y="38.7" width="127.6" height="9.6"/>
			<rect x="35.9" y="62.4" width="127.6" height="9.6"/>
			<rect x="35.9" y="86.1" width="127.6" height="9.6"/>
			<rect x="35.9" y="109.9" width="127.6" height="9.6"/>
		</g>
		<rect x="18.6" y="203.9" width="163" height="54.4"/>
	</g>
</g>
</svg>
