<?xml version="1.0" encoding="utf-8"?>
<!-- Generator: Adobe Illustrator 17.1.0, SVG Export Plug-In . SVG Version: 6.00 Build 0)  -->
<!DOCTYPE svg PUBLIC "-//W3C//DTD SVG 1.1//EN" "http://www.w3.org/Graphics/SVG/1.1/DTD/svg11.dtd">
<svg version="1.1" xmlns="http://www.w3.org/2000/svg" xmlns:xlink="http://www.w3.org/1999/xlink" x="0px" y="0px"
	 viewBox="0 0 122 123" enable-background="new 0 0 122 123" xml:space="preserve">
<g id="Layer_1" display="none">
	<g display="inline">
		<polygon fill="none" stroke="#000000" stroke-width="9.5074" stroke-miterlimit="10" points="127.7,-62.3 -33.9,-62.3 
			-33.9,189.8 161.9,189.8 161.9,-36 		"/>
		<g>
			<rect x="-13.5" y="-45.1" width="93.6" height="11.1"/>
			<rect x="-13.5" y="-27" width="93.6" height="11.1"/>
			<rect x="-13.5" y="-8.8" width="93.6" height="11.1"/>
			<rect x="-13.5" y="9.4" width="155" height="11.1"/>
			<rect x="-13.5" y="27.6" width="155" height="11.1"/>
			<rect x="-13.5" y="45.8" width="155" height="11.1"/>
			<rect x="-13.5" y="64" width="155" height="11.1"/>
			<rect x="-13.5" y="82.1" width="155" height="11.1"/>
			<rect x="-13.5" y="100.3" width="155" height="11.1"/>
			<rect x="-13.5" y="118.5" width="155" height="11.1"/>
			<rect x="-13.5" y="136.7" width="155" height="11.1"/>
			<rect x="-13.5" y="161.5" width="155" height="11.1"/>
		</g>
	</g>
</g>
<g id="Layer_2" display="none">
	<g display="inline">
		<g>
			<rect x="-62.2" y="25.8" width="102.2" height="7.3"/>
			<rect x="-62.2" y="41.8" width="102.2" height="7.3"/>
			<rect x="-62.2" y="57.7" width="102.2" height="7.3"/>
			<rect x="-62.2" y="73.7" width="102.2" height="7.3"/>
			<rect x="-62.2" y="89.6" width="102.2" height="7.3"/>
			<rect x="-62.2" y="105.6" width="102.2" height="7.3"/>
			<rect x="-62.2" y="121.5" width="102.2" height="7.3"/>
			<rect x="-62.2" y="137.5" width="102.2" height="7.3"/>
			<rect x="-62.2" y="-22" width="62.1" height="7.3"/>
			<rect x="-62.2" y="-6.1" width="102.2" height="7.3"/>
			<rect x="-62.2" y="9.9" width="102.2" height="7.3"/>
		</g>
		<g>
			<rect x="75.8" y="25.8" width="102.2" height="7.3"/>
			<rect x="75.8" y="41.8" width="102.2" height="7.3"/>
			<rect x="75.8" y="57.7" width="102.2" height="7.3"/>
			<rect x="75.8" y="73.7" width="102.2" height="7.3"/>
			<rect x="75.8" y="89.6" width="102.2" height="7.3"/>
			<rect x="75.8" y="105.6" width="102.2" height="7.3"/>
			<rect x="75.8" y="121.5" width="102.2" height="7.3"/>
			<rect x="75.8" y="137.5" width="102.2" height="7.3"/>
			<rect x="75.8" y="-6.1" width="102.2" height="7.3"/>
			<rect x="75.8" y="9.9" width="102.2" height="7.3"/>
			<rect x="75.8" y="-22" width="62.1" height="7.3"/>
		</g>
		<rect x="-80" y="-42.5" fill="none" stroke="#000000" stroke-width="9.5074" stroke-miterlimit="10" width="138" height="208"/>
		<rect x="58" y="-42.5" fill="none" stroke="#000000" stroke-width="9.5074" stroke-miterlimit="10" width="138" height="208"/>
	</g>
	<g display="inline">
		<g>
			<polygon fill="none" stroke="#000000" stroke-width="9.5074" stroke-miterlimit="10" points="69.3,-59.8 58,-47.9 44.3,-59.8 
				-99.5,-59.8 -99.5,182.8 46.3,182.8 58,171.6 71.3,182.8 215.4,182.8 215.4,-59.8 			"/>
		</g>
	</g>
</g>
<g id="Layer_3">
	<g>
		<path d="M55.3,75.2l-0.2-2.3c-0.5-4.8,1.1-10.1,5.5-15.5c4-4.7,6.3-8.2,6.3-12.2c0-4.6-2.9-7.6-8.5-7.7c-3.2,0-6.8,1.1-9,2.8
			l-2.1-5.6c2.9-2.1,8-3.6,12.8-3.6c10.3,0,14.9,6.3,14.9,13.1c0,6.1-3.4,10.5-7.7,15.5c-3.9,4.6-5.4,8.6-5.1,13.1l0.1,2.3H55.3z
			 M53.3,87.7c0-3.3,2.2-5.6,5.4-5.6c3.1,0,5.3,2.3,5.3,5.6c0,3.1-2.1,5.5-5.4,5.5C55.5,93.3,53.3,90.9,53.3,87.7z"/>
	</g>
	<circle fill="none" stroke="#000000" stroke-width="9.5074" stroke-miterlimit="10" cx="61.1" cy="62.2" r="55.7"/>
</g>
<g id="Layer_4" display="none">
	<g display="inline">
		<g>
			<g>
				<path d="M65,29.9c0.1,2.9-2.1,5.3-5.5,5.3c-3,0-5.2-2.4-5.2-5.3c0-3.1,2.3-5.4,5.4-5.4C62.9,24.4,65,26.8,65,29.9z M55.3,90.8
					V43.2H64v47.6H55.3z"/>
			</g>
		</g>
		<circle fill="none" stroke="#000000" stroke-width="11.1353" stroke-miterlimit="10" cx="59.6" cy="57.6" r="55.7"/>
	</g>
</g>
<g id="Layer_5" display="none">
	<g display="inline">
		<path fill="#FFFFFF" d="M102.1,173.2c5.4-0.8,10.9-1.2,16.2-2.3c16.3-3.3,28.2-13.5,39.7-24.6c7.1-6.8,8.1-14,2.1-21.7
			c-9.4-11.9-20.7-21.7-34.1-28.8c-8.5-4.5-17.1-3.8-24.6,2.7c-4.2,3.6-8.1,7.4-12.1,11.2c-7,6.8-13.5,8.2-22.3,4
			c-4.7-2.3-9.3-5.2-13.4-8.5C41,94.6,30.2,82.3,21.2,68.6c-3.9-5.9-6.8-12.5-9.2-19.2C9.2,41.2,12,34.7,19,29.3
			c4.5-3.4,8.8-7.1,13.1-10.8c7-6.1,9-14,6.4-22.6c-1.6-5.2-3.9-10.4-6.8-14.9c-5.4-8.4-11-16.7-17.5-24.2
			c-5.4-6.3-12.4-7.4-18.4-3.1c-12.6,9-24.6,18.9-31.3,33.5c-8.8,19.3-9.1,39.3-2.1,58.8c16.9,47,48.4,82.5,89,110.3
			C66.5,166.8,83.4,172.7,102.1,173.2z"/>
		<path d="M102.1,172.9c-17.9,0-35.9-6.4-50.6-16.5c-40.6-27.9-72.2-63.4-89-110.3c-7-19.6-6.8-39.5,2.1-58.8
			c6.7-14.7,18.6-24.5,31.3-33.5c6-4.3,13-3.2,18.4,3.1c6.5,7.5,12.1,15.8,17.5,24.2c2.9,4.5,5.2,9.7,6.8,14.9
			c2.7,8.7,0.7,16.5-6.4,22.6c-4.3,3.7-8.6,7.3-13.1,10.8c-7,5.4-9.8,11.9-6.9,20.1c2.3,6.7,5.3,13.3,9.2,19.2
			c9,13.7,19.7,26,32.4,36.4c4.1,3.3,8.7,6.3,13.4,8.5c8.8,4.3,15.2,2.8,22.3-4c3.9-3.8,7.9-7.6,12.1-11.2
			c7.5-6.5,16.1-7.2,24.6-2.7c13.4,7.1,24.7,16.9,34.1,28.8c6.1,7.7,5,14.9-2.1,21.7c-7.9,7.5-16.1,14.9-25.9,19.8
			C122.6,170.8,112.4,172.9,102.1,172.9z"/>
	</g>
</g>
<g id="Layer_6" display="none">
	<g display="inline">
		<g>
			<circle fill="none" stroke="#000000" stroke-width="11.1353" stroke-miterlimit="10" cx="31.8" cy="43.6" r="55"/>
		</g>
		<rect x="96" y="60.8" transform="matrix(0.6194 -0.7851 0.7851 0.6194 -40.6682 126.0732)" width="27.4" height="88.3"/>
	</g>
</g>
<g id="Layer_7" display="none">
	<polygon display="inline" fill="none" stroke="#000000" stroke-width="11.1353" stroke-miterlimit="10" points="108.3,141.5 
		20.3,141.5 4.3,-27.2 121.7,-27.2 	"/>
	
		<rect x="2.7" y="-48.1" display="inline" fill="none" stroke="#000000" stroke-width="11.1353" stroke-miterlimit="10" width="120.7" height="20.7"/>
	
		<rect x="38.7" y="-71.8" display="inline" fill="none" stroke="#000000" stroke-width="11.1353" stroke-miterlimit="10" width="48.7" height="18.9"/>
	
		<line display="inline" stroke="#000000" stroke-width="11.1353" stroke-miterlimit="10" x1="27.4" y1="-15.2" x2="41.9" y2="129.8"/>
	<line display="inline" stroke="#000000" stroke-width="11.1353" stroke-miterlimit="10" x1="63" y1="-15.2" x2="63" y2="128.8"/>
	
		<line display="inline" stroke="#000000" stroke-width="11.1353" stroke-miterlimit="10" x1="100.2" y1="-15.2" x2="85.7" y2="129.8"/>
</g>
<g id="Layer_8" display="none">
	<g display="inline">
		<rect x="55.3" y="3.2" transform="matrix(-8.604464e-03 1 -1 -8.604464e-03 82.944 -37.066)" width="9.1" height="38.8"/>
	</g>
</g>
<g id="Layer_9" display="none">
	<g display="inline">
		<rect x="-48.2" y="87.3" width="217.3" height="72.5"/>
		<g>
			
				<rect x="-18.5" y="-62.4" fill="none" stroke="#000000" stroke-width="9.5074" stroke-miterlimit="10" width="157.1" height="149.7"/>
			<rect x="-3.8" y="-28" width="127.6" height="9.6"/>
			<rect x="-3.8" y="-4.3" width="127.6" height="9.6"/>
			<rect x="-3.8" y="19.5" width="127.6" height="9.6"/>
			<rect x="-3.8" y="43.2" width="127.6" height="9.6"/>
		</g>
		<rect x="-21" y="137.2" width="163" height="54.4"/>
	</g>
</g>
</svg>
