<?xml version="1.0" encoding="utf-8"?>
<!-- Generator: Adobe Illustrator 17.1.0, SVG Export Plug-In . SVG Version: 6.00 Build 0)  -->
<!DOCTYPE svg PUBLIC "-//W3C//DTD SVG 1.1//EN" "http://www.w3.org/Graphics/SVG/1.1/DTD/svg11.dtd">
<svg version="1.1" xmlns="http://www.w3.org/2000/svg" xmlns:xlink="http://www.w3.org/1999/xlink" x="0px" y="0px"
	 viewBox="0 0 209.3 224" enable-background="new 0 0 209.3 224" xml:space="preserve">
<g id="Layer_1" display="none">
	<g display="inline">
		<polygon fill="none" stroke="#000000" stroke-width="9.5074" stroke-miterlimit="10" points="171.7,-12.7 10.1,-12.7 10.1,239.4 
			205.9,239.4 205.9,13.7 		"/>
		<g>
			<rect x="30.5" y="4.5" width="93.6" height="11.1"/>
			<rect x="30.5" y="22.7" width="93.6" height="11.1"/>
			<rect x="30.5" y="40.9" width="93.6" height="11.1"/>
			<rect x="30.5" y="59.1" width="155" height="11.1"/>
			<rect x="30.5" y="77.3" width="155" height="11.1"/>
			<rect x="30.5" y="95.4" width="155" height="11.1"/>
			<rect x="30.5" y="113.6" width="155" height="11.1"/>
			<rect x="30.5" y="131.8" width="155" height="11.1"/>
			<rect x="30.5" y="150" width="155" height="11.1"/>
			<rect x="30.5" y="168.2" width="155" height="11.1"/>
			<rect x="30.5" y="186.4" width="155" height="11.1"/>
			<rect x="30.5" y="211.2" width="155" height="11.1"/>
		</g>
	</g>
</g>
<g id="Layer_2" display="none">
	<g display="inline">
		<g>
			<rect x="-18.2" y="75.5" width="102.2" height="7.3"/>
			<rect x="-18.2" y="91.4" width="102.2" height="7.3"/>
			<rect x="-18.2" y="107.4" width="102.2" height="7.3"/>
			<rect x="-18.2" y="123.3" width="102.2" height="7.3"/>
			<rect x="-18.2" y="139.3" width="102.2" height="7.3"/>
			<rect x="-18.2" y="155.2" width="102.2" height="7.3"/>
			<rect x="-18.2" y="171.2" width="102.2" height="7.3"/>
			<rect x="-18.2" y="187.1" width="102.2" height="7.3"/>
			<rect x="-18.2" y="27.6" width="62.1" height="7.3"/>
			<rect x="-18.2" y="43.6" width="102.2" height="7.3"/>
			<rect x="-18.2" y="59.5" width="102.2" height="7.3"/>
		</g>
		<g>
			<rect x="119.8" y="75.5" width="102.2" height="7.3"/>
			<rect x="119.8" y="91.4" width="102.2" height="7.3"/>
			<rect x="119.8" y="107.4" width="102.2" height="7.3"/>
			<rect x="119.8" y="123.3" width="102.2" height="7.3"/>
			<rect x="119.8" y="139.3" width="102.2" height="7.3"/>
			<rect x="119.8" y="155.2" width="102.2" height="7.3"/>
			<rect x="119.8" y="171.2" width="102.2" height="7.3"/>
			<rect x="119.8" y="187.1" width="102.2" height="7.3"/>
			<rect x="119.8" y="43.6" width="102.2" height="7.3"/>
			<rect x="119.8" y="59.5" width="102.2" height="7.3"/>
			<rect x="119.8" y="27.6" width="62.1" height="7.3"/>
		</g>
		<rect x="-36" y="7.2" fill="none" stroke="#000000" stroke-width="9.5074" stroke-miterlimit="10" width="138" height="208"/>
		<rect x="102" y="7.2" fill="none" stroke="#000000" stroke-width="9.5074" stroke-miterlimit="10" width="138" height="208"/>
	</g>
	<g display="inline">
		<g>
			<polygon fill="none" stroke="#000000" stroke-width="9.5074" stroke-miterlimit="10" points="113.3,-10.1 102,1.8 88.3,-10.1 
				-55.5,-10.1 -55.5,232.5 90.3,232.5 102,221.3 115.3,232.5 259.4,232.5 259.4,-10.1 			"/>
		</g>
	</g>
</g>
<g id="Layer_3" display="none">
	<g display="inline">
		<path d="M99.3,124.9l-0.2-2.3c-0.5-4.8,1.1-10.1,5.5-15.5c4-4.7,6.3-8.2,6.3-12.2c0-4.6-2.9-7.6-8.5-7.7c-3.2,0-6.8,1.1-9,2.8
			l-2.1-5.6c2.9-2.1,8-3.6,12.8-3.6c10.3,0,14.9,6.3,14.9,13.1c0,6.1-3.4,10.5-7.7,15.5c-3.9,4.6-5.4,8.6-5.1,13.1l0.1,2.3H99.3z
			 M97.3,137.4c0-3.3,2.2-5.6,5.4-5.6c3.1,0,5.3,2.3,5.3,5.6c0,3.1-2.1,5.5-5.4,5.5C99.5,142.9,97.3,140.5,97.3,137.4z"/>
	</g>
	
		<circle display="inline" fill="none" stroke="#000000" stroke-width="9.5074" stroke-miterlimit="10" cx="105.1" cy="111.8" r="55.7"/>
</g>
<g id="Layer_4" display="none">
	<g display="inline">
		<g>
			<g>
				<path d="M109,79.5c0.1,2.9-2.1,5.3-5.5,5.3c-3,0-5.2-2.4-5.2-5.3c0-3.1,2.3-5.4,5.4-5.4C106.9,74.1,109,76.5,109,79.5z
					 M99.3,140.5V92.9h8.7v47.6H99.3z"/>
			</g>
		</g>
		<circle fill="none" stroke="#000000" stroke-width="11.1353" stroke-miterlimit="10" cx="103.6" cy="107.3" r="55.7"/>
	</g>
</g>
<g id="Layer_5">
	<g>
		<path fill="#FFFFFF" d="M146.1,222.8c5.4-0.8,10.9-1.2,16.2-2.3c16.3-3.3,28.2-13.5,39.7-24.6c7.1-6.8,8.1-14,2.1-21.7
			c-9.4-11.9-20.7-21.7-34.1-28.8c-8.5-4.5-17.1-3.8-24.6,2.7c-4.2,3.6-8.1,7.4-12.1,11.2c-7,6.8-13.5,8.2-22.3,4
			c-4.7-2.3-9.3-5.2-13.4-8.5C85,144.3,74.2,132,65.2,118.3c-3.9-5.9-6.8-12.5-9.2-19.2C53.2,90.8,56,84.4,63,79
			c4.5-3.4,8.8-7.1,13.1-10.8c7-6.1,9-14,6.4-22.6c-1.6-5.2-3.9-10.4-6.8-14.9c-5.4-8.4-11-16.7-17.5-24.2
			c-5.4-6.3-12.4-7.4-18.4-3.1c-12.6,9-24.6,18.9-31.3,33.5c-8.8,19.3-9.1,39.3-2.1,58.8c16.9,47,48.4,82.5,89,110.3
			C110.5,216.5,127.4,222.3,146.1,222.8z"/>
		<path d="M146.1,222.6c-17.9,0-35.9-6.4-50.6-16.5c-40.6-27.9-72.2-63.4-89-110.3c-7-19.6-6.8-39.5,2.1-58.8
			c6.7-14.7,18.6-24.5,31.3-33.5c6-4.3,13-3.2,18.4,3.1c6.5,7.5,12.1,15.8,17.5,24.2c2.9,4.5,5.2,9.7,6.8,14.9
			c2.7,8.7,0.7,16.5-6.4,22.6C71.9,71.9,67.5,75.5,63,79c-7,5.4-9.8,11.9-6.9,20.1c2.3,6.7,5.3,13.3,9.2,19.2
			c9,13.7,19.7,26,32.4,36.4c4.1,3.3,8.7,6.3,13.4,8.5c8.8,4.3,15.2,2.8,22.3-4c3.9-3.8,7.9-7.6,12.1-11.2
			c7.5-6.5,16.1-7.2,24.6-2.7c13.4,7.1,24.7,16.9,34.1,28.8c6.1,7.7,5,14.9-2.1,21.7c-7.9,7.5-16.1,14.9-25.9,19.8
			C166.6,220.5,156.4,222.6,146.1,222.6z"/>
	</g>
</g>
<g id="Layer_6" display="none">
	<g display="inline">
		<g>
			<circle fill="none" stroke="#000000" stroke-width="11.1353" stroke-miterlimit="10" cx="75.8" cy="93.2" r="55"/>
		</g>
		<rect x="140" y="110.5" transform="matrix(0.6194 -0.7851 0.7851 0.6194 -62.9139 179.5207)" width="27.4" height="88.3"/>
	</g>
</g>
<g id="Layer_7" display="none">
	<polygon display="inline" fill="none" stroke="#000000" stroke-width="11.1353" stroke-miterlimit="10" points="152.3,191.2 
		64.3,191.2 48.3,22.5 165.7,22.5 	"/>
	
		<rect x="46.7" y="1.6" display="inline" fill="none" stroke="#000000" stroke-width="11.1353" stroke-miterlimit="10" width="120.7" height="20.7"/>
	
		<rect x="82.7" y="-22.1" display="inline" fill="none" stroke="#000000" stroke-width="11.1353" stroke-miterlimit="10" width="48.7" height="18.9"/>
	
		<line display="inline" stroke="#000000" stroke-width="11.1353" stroke-miterlimit="10" x1="71.4" y1="34.5" x2="85.9" y2="179.5"/>
	<line display="inline" stroke="#000000" stroke-width="11.1353" stroke-miterlimit="10" x1="107" y1="34.5" x2="107" y2="178.5"/>
	
		<line display="inline" stroke="#000000" stroke-width="11.1353" stroke-miterlimit="10" x1="144.2" y1="34.5" x2="129.7" y2="179.5"/>
</g>
<g id="Layer_8" display="none">
	<g display="inline">
		<rect x="99.3" y="52.8" transform="matrix(-8.604464e-03 1 -1 -8.604464e-03 176.9874 -30.9704)" width="9.1" height="38.8"/>
	</g>
</g>
<g id="Layer_9" display="none">
	<g display="inline">
		<rect x="-4.2" y="136.9" width="217.3" height="72.5"/>
		<g>
			
				<rect x="25.5" y="-12.8" fill="none" stroke="#000000" stroke-width="9.5074" stroke-miterlimit="10" width="157.1" height="149.7"/>
			<rect x="40.2" y="21.7" width="127.6" height="9.6"/>
			<rect x="40.2" y="45.4" width="127.6" height="9.6"/>
			<rect x="40.2" y="69.1" width="127.6" height="9.6"/>
			<rect x="40.2" y="92.9" width="127.6" height="9.6"/>
		</g>
		<rect x="23" y="186.9" width="163" height="54.4"/>
	</g>
</g>
</svg>
