<?xml version="1.0" encoding="utf-8"?>
<!-- Generator: Adobe Illustrator 17.1.0, SVG Export Plug-In . SVG Version: 6.00 Build 0)  -->
<!DOCTYPE svg PUBLIC "-//W3C//DTD SVG 1.1//EN" "http://www.w3.org/Graphics/SVG/1.1/DTD/svg11.dtd">
<svg version="1.1" xmlns="http://www.w3.org/2000/svg" xmlns:xlink="http://www.w3.org/1999/xlink" x="0px" y="0px"
	 viewBox="0 0 38.9 38.9" enable-background="new 0 0 38.9 38.9" xml:space="preserve">
<g id="Layer_1" display="none">
	<g display="inline">
		<polygon fill="none" stroke="#000000" stroke-width="9.5074" stroke-miterlimit="10" points="87.3,-65.5 -74.2,-65.5 -74.2,186.7 
			121.5,186.7 121.5,-39.1 		"/>
		<g>
			<rect x="-53.9" y="-48.3" width="93.6" height="11.1"/>
			<rect x="-53.9" y="-30.1" width="93.6" height="11.1"/>
			<rect x="-53.9" y="-11.9" width="93.6" height="11.1"/>
			<rect x="-53.9" y="6.3" width="155" height="11.1"/>
			<rect x="-53.9" y="24.5" width="155" height="11.1"/>
			<rect x="-53.9" y="42.6" width="155" height="11.1"/>
			<rect x="-53.9" y="60.8" width="155" height="11.1"/>
			<rect x="-53.9" y="79" width="155" height="11.1"/>
			<rect x="-53.9" y="97.2" width="155" height="11.1"/>
			<rect x="-53.9" y="115.4" width="155" height="11.1"/>
			<rect x="-53.9" y="133.6" width="155" height="11.1"/>
			<rect x="-53.9" y="158.4" width="155" height="11.1"/>
		</g>
	</g>
</g>
<g id="Layer_2" display="none">
	<g display="inline">
		<g>
			<rect x="-102.5" y="22.7" width="102.2" height="7.3"/>
			<rect x="-102.5" y="38.6" width="102.2" height="7.3"/>
			<rect x="-102.5" y="54.6" width="102.2" height="7.3"/>
			<rect x="-102.5" y="70.5" width="102.2" height="7.3"/>
			<rect x="-102.5" y="86.5" width="102.2" height="7.3"/>
			<rect x="-102.5" y="102.4" width="102.2" height="7.3"/>
			<rect x="-102.5" y="118.4" width="102.2" height="7.3"/>
			<rect x="-102.5" y="134.3" width="102.2" height="7.3"/>
			<rect x="-102.5" y="-25.2" width="62.1" height="7.3"/>
			<rect x="-102.5" y="-9.2" width="102.2" height="7.3"/>
			<rect x="-102.5" y="6.7" width="102.2" height="7.3"/>
		</g>
		<g>
			<rect x="35.5" y="22.7" width="102.2" height="7.3"/>
			<rect x="35.5" y="38.6" width="102.2" height="7.3"/>
			<rect x="35.5" y="54.6" width="102.2" height="7.3"/>
			<rect x="35.5" y="70.5" width="102.2" height="7.3"/>
			<rect x="35.5" y="86.5" width="102.2" height="7.3"/>
			<rect x="35.5" y="102.4" width="102.2" height="7.3"/>
			<rect x="35.5" y="118.4" width="102.2" height="7.3"/>
			<rect x="35.5" y="134.3" width="102.2" height="7.3"/>
			<rect x="35.5" y="-9.2" width="102.2" height="7.3"/>
			<rect x="35.5" y="6.7" width="102.2" height="7.3"/>
			<rect x="35.5" y="-25.2" width="62.1" height="7.3"/>
		</g>
		
			<rect x="-120.4" y="-45.6" fill="none" stroke="#000000" stroke-width="9.5074" stroke-miterlimit="10" width="138" height="208"/>
		<rect x="17.6" y="-45.6" fill="none" stroke="#000000" stroke-width="9.5074" stroke-miterlimit="10" width="138" height="208"/>
	</g>
	<g display="inline">
		<g>
			<polygon fill="none" stroke="#000000" stroke-width="9.5074" stroke-miterlimit="10" points="28.9,-62.9 17.6,-51 3.9,-62.9 
				-139.9,-62.9 -139.9,179.7 5.9,179.7 17.6,168.5 30.9,179.7 175,179.7 175,-62.9 			"/>
		</g>
	</g>
</g>
<g id="Layer_3" display="none">
	<g display="inline">
		<path d="M14.9,72.1l-0.2-2.3c-0.5-4.8,1.1-10.1,5.5-15.5c4-4.7,6.3-8.2,6.3-12.2c0-4.6-2.9-7.6-8.5-7.7c-3.2,0-6.8,1.1-9,2.8
			l-2.1-5.6c2.9-2.1,8-3.6,12.8-3.6c10.3,0,14.9,6.3,14.9,13.1c0,6.1-3.4,10.5-7.7,15.5c-3.9,4.6-5.4,8.6-5.1,13.1l0.1,2.3H14.9z
			 M12.9,84.6c0-3.3,2.2-5.6,5.4-5.6c3.1,0,5.3,2.3,5.3,5.6c0,3.1-2.1,5.5-5.4,5.5C15.1,90.1,12.9,87.7,12.9,84.6z"/>
	</g>
	
		<circle display="inline" fill="none" stroke="#000000" stroke-width="9.5074" stroke-miterlimit="10" cx="20.7" cy="59.1" r="55.7"/>
</g>
<g id="Layer_4" display="none">
	<g display="inline">
		<g>
			<g>
				<path d="M24.6,26.7c0.1,2.9-2.1,5.3-5.5,5.3c-3,0-5.2-2.4-5.2-5.3c0-3.1,2.3-5.4,5.4-5.4C22.5,21.3,24.6,23.7,24.6,26.7z
					 M14.9,87.7V40.1h8.7v47.6H14.9z"/>
			</g>
		</g>
		<circle fill="none" stroke="#000000" stroke-width="11.1353" stroke-miterlimit="10" cx="19.2" cy="54.5" r="55.7"/>
	</g>
</g>
<g id="Layer_5" display="none">
	<g display="inline">
		<path fill="#FFFFFF" d="M61.7,170c5.4-0.8,10.9-1.2,16.2-2.3c16.3-3.3,28.2-13.5,39.7-24.6c7.1-6.8,8.1-14,2.1-21.7
			c-9.4-11.9-20.7-21.7-34.1-28.8c-8.5-4.5-17.1-3.8-24.6,2.7c-4.2,3.6-8.1,7.4-12.1,11.2c-7,6.8-13.5,8.2-22.3,4
			c-4.7-2.3-9.3-5.2-13.4-8.5C0.6,91.5-10.2,79.2-19.1,65.5C-23,59.6-26,53-28.3,46.3c-2.9-8.2-0.1-14.7,6.9-20.1
			c4.5-3.4,8.8-7.1,13.1-10.8c7-6.1,9-14,6.4-22.6c-1.6-5.2-3.9-10.4-6.8-14.9c-5.4-8.4-11-16.7-17.5-24.2
			c-5.4-6.3-12.4-7.4-18.4-3.1c-12.6,9-24.6,18.9-31.3,33.5C-84.8,3.5-85,23.4-78,43c16.9,47,48.4,82.5,89,110.3
			C26.1,163.7,43,169.5,61.7,170z"/>
		<path d="M61.7,169.8c-17.9,0-35.9-6.4-50.6-16.5C-29.6,125.5-61.1,90-78,43c-7-19.6-6.8-39.5,2.1-58.8
			c6.7-14.7,18.6-24.5,31.3-33.5c6-4.3,13-3.2,18.4,3.1c6.5,7.5,12.1,15.8,17.5,24.2c2.9,4.5,5.2,9.7,6.8,14.9
			C0.7,1.4-1.2,9.3-8.3,15.4c-4.3,3.7-8.6,7.3-13.1,10.8c-7,5.4-9.8,11.9-6.9,20.1C-26,53-23,59.6-19.1,65.5
			c9,13.7,19.7,26,32.4,36.4c4.1,3.3,8.7,6.3,13.4,8.5c8.8,4.3,15.2,2.8,22.3-4c3.9-3.8,7.9-7.6,12.1-11.2
			c7.5-6.5,16.1-7.2,24.6-2.7c13.4,7.1,24.7,16.9,34.1,28.8c6.1,7.7,5,14.9-2.1,21.7c-7.9,7.5-16.1,14.9-25.9,19.8
			C82.2,167.7,72,169.8,61.7,169.8z"/>
	</g>
</g>
<g id="Layer_6" display="none">
	<g display="inline">
		<g>
			<circle fill="none" stroke="#000000" stroke-width="11.1353" stroke-miterlimit="10" cx="-8.6" cy="40.4" r="55"/>
		</g>
		<rect x="55.6" y="57.7" transform="matrix(0.6194 -0.7851 0.7851 0.6194 -53.5861 93.1742)" width="27.4" height="88.3"/>
	</g>
</g>
<g id="Layer_7" display="none">
	<polygon display="inline" fill="none" stroke="#000000" stroke-width="11.1353" stroke-miterlimit="10" points="68,138.4 
		-20.1,138.4 -36,-30.3 81.3,-30.3 	"/>
	
		<rect x="-37.7" y="-51.2" display="inline" fill="none" stroke="#000000" stroke-width="11.1353" stroke-miterlimit="10" width="120.7" height="20.7"/>
	
		<rect x="-1.7" y="-74.9" display="inline" fill="none" stroke="#000000" stroke-width="11.1353" stroke-miterlimit="10" width="48.7" height="18.9"/>
	<line display="inline" stroke="#000000" stroke-width="11.1353" stroke-miterlimit="10" x1="-13" y1="-18.3" x2="1.5" y2="126.7"/>
	
		<line display="inline" stroke="#000000" stroke-width="11.1353" stroke-miterlimit="10" x1="22.6" y1="-18.3" x2="22.6" y2="125.7"/>
	
		<line display="inline" stroke="#000000" stroke-width="11.1353" stroke-miterlimit="10" x1="59.8" y1="-18.3" x2="45.3" y2="126.7"/>
</g>
<g id="Layer_8">
	<g>
		<rect x="14.9" y="0" transform="matrix(-1 -8.604333e-03 8.604333e-03 -1 38.7457 39.0805)" width="9.1" height="38.8"/>
		<rect x="14.9" y="0" transform="matrix(-8.604464e-03 1 -1 -8.604464e-03 39.0806 0.1681)" width="9.1" height="38.8"/>
	</g>
</g>
</svg>
