<?xml version="1.0" encoding="utf-8"?>
<!-- Generator: Adobe Illustrator 17.1.0, SVG Export Plug-In . SVG Version: 6.00 Build 0)  -->
<!DOCTYPE svg PUBLIC "-//W3C//DTD SVG 1.1//EN" "http://www.w3.org/Graphics/SVG/1.1/DTD/svg11.dtd">
<svg version="1.1" xmlns="http://www.w3.org/2000/svg" xmlns:xlink="http://www.w3.org/1999/xlink" x="0px" y="0px"
	 viewBox="0 0 217.3 258.9" enable-background="new 0 0 217.3 258.9" xml:space="preserve">
<g id="Layer_1" display="none">
	<g display="inline">
		<polygon fill="none" stroke="#000000" stroke-width="9.5074" stroke-miterlimit="10" points="175.9,5 14.3,5 14.3,257.1 
			210.1,257.1 210.1,31.3 		"/>
		<g>
			<rect x="34.7" y="22.2" width="93.6" height="11.1"/>
			<rect x="34.7" y="40.4" width="93.6" height="11.1"/>
			<rect x="34.7" y="58.6" width="93.6" height="11.1"/>
			<rect x="34.7" y="76.7" width="155" height="11.1"/>
			<rect x="34.7" y="94.9" width="155" height="11.1"/>
			<rect x="34.7" y="113.1" width="155" height="11.1"/>
			<rect x="34.7" y="131.3" width="155" height="11.1"/>
			<rect x="34.7" y="149.5" width="155" height="11.1"/>
			<rect x="34.7" y="167.7" width="155" height="11.1"/>
			<rect x="34.7" y="185.8" width="155" height="11.1"/>
			<rect x="34.7" y="204" width="155" height="11.1"/>
			<rect x="34.7" y="228.8" width="155" height="11.1"/>
		</g>
	</g>
</g>
<g id="Layer_2" display="none">
	<g display="inline">
		<g>
			<rect x="-14" y="93.1" width="102.2" height="7.3"/>
			<rect x="-14" y="109.1" width="102.2" height="7.3"/>
			<rect x="-14" y="125" width="102.2" height="7.3"/>
			<rect x="-14" y="141" width="102.2" height="7.3"/>
			<rect x="-14" y="156.9" width="102.2" height="7.3"/>
			<rect x="-14" y="172.9" width="102.2" height="7.3"/>
			<rect x="-14" y="188.8" width="102.2" height="7.3"/>
			<rect x="-14" y="204.8" width="102.2" height="7.3"/>
			<rect x="-14" y="45.3" width="62.1" height="7.3"/>
			<rect x="-14" y="61.3" width="102.2" height="7.3"/>
			<rect x="-14" y="77.2" width="102.2" height="7.3"/>
		</g>
		<g>
			<rect x="124" y="93.1" width="102.2" height="7.3"/>
			<rect x="124" y="109.1" width="102.2" height="7.3"/>
			<rect x="124" y="125" width="102.2" height="7.3"/>
			<rect x="124" y="141" width="102.2" height="7.3"/>
			<rect x="124" y="156.9" width="102.2" height="7.3"/>
			<rect x="124" y="172.9" width="102.2" height="7.3"/>
			<rect x="124" y="188.8" width="102.2" height="7.3"/>
			<rect x="124" y="204.8" width="102.2" height="7.3"/>
			<rect x="124" y="61.3" width="102.2" height="7.3"/>
			<rect x="124" y="77.2" width="102.2" height="7.3"/>
			<rect x="124" y="45.3" width="62.1" height="7.3"/>
		</g>
		<rect x="-31.9" y="24.9" fill="none" stroke="#000000" stroke-width="9.5074" stroke-miterlimit="10" width="138" height="208"/>
		<rect x="106.1" y="24.9" fill="none" stroke="#000000" stroke-width="9.5074" stroke-miterlimit="10" width="138" height="208"/>
	</g>
	<g display="inline">
		<g>
			<polygon fill="none" stroke="#000000" stroke-width="9.5074" stroke-miterlimit="10" points="117.5,7.6 106.1,19.4 92.5,7.6 
				-51.3,7.6 -51.3,250.1 94.5,250.1 106.1,238.9 119.5,250.1 263.6,250.1 263.6,7.6 			"/>
		</g>
	</g>
</g>
<g id="Layer_3" display="none">
	<g display="inline">
		<path d="M103.5,142.6l-0.2-2.3c-0.5-4.8,1.1-10.1,5.5-15.5c4-4.7,6.3-8.2,6.3-12.2c0-4.6-2.9-7.6-8.5-7.7c-3.2,0-6.8,1.1-9,2.8
			l-2.1-5.6c2.9-2.1,8-3.6,12.8-3.6c10.3,0,14.9,6.3,14.9,13.1c0,6.1-3.4,10.5-7.7,15.5c-3.9,4.6-5.4,8.6-5.1,13.1l0.1,2.3H103.5z
			 M101.5,155.1c0-3.3,2.2-5.6,5.4-5.6c3.1,0,5.3,2.3,5.3,5.6c0,3.1-2.1,5.5-5.4,5.5C103.7,160.6,101.5,158.2,101.5,155.1z"/>
	</g>
	
		<circle display="inline" fill="none" stroke="#000000" stroke-width="9.5074" stroke-miterlimit="10" cx="109.3" cy="129.5" r="55.7"/>
</g>
<g id="Layer_4" display="none">
	<g display="inline">
		<g>
			<g>
				<path d="M113.2,97.2c0.1,2.9-2.1,5.3-5.5,5.3c-3,0-5.2-2.4-5.2-5.3c0-3.1,2.3-5.4,5.4-5.4C111.1,91.8,113.2,94.1,113.2,97.2z
					 M103.5,158.1v-47.6h8.7v47.6H103.5z"/>
			</g>
		</g>
		<circle fill="none" stroke="#000000" stroke-width="11.1353" stroke-miterlimit="10" cx="107.8" cy="125" r="55.7"/>
	</g>
</g>
<g id="Layer_5" display="none">
	<g display="inline">
		<path fill="#FFFFFF" d="M150.3,240.5c5.4-0.8,10.9-1.2,16.2-2.3c16.3-3.3,28.2-13.5,39.7-24.6c7.1-6.8,8.1-14,2.1-21.7
			c-9.4-11.9-20.7-21.7-34.1-28.8c-8.5-4.5-17.1-3.8-24.6,2.7c-4.2,3.6-8.1,7.4-12.1,11.2c-7,6.8-13.5,8.2-22.3,4
			c-4.7-2.3-9.3-5.2-13.4-8.5C89.2,162,78.4,149.7,69.4,136c-3.9-5.9-6.8-12.5-9.2-19.2c-2.9-8.2-0.1-14.7,6.9-20.1
			c4.5-3.4,8.8-7.1,13.1-10.8c7-6.1,9-14,6.4-22.6c-1.6-5.2-3.9-10.4-6.8-14.9c-5.4-8.4-11-16.7-17.5-24.2
			c-5.4-6.3-12.4-7.4-18.4-3.1c-12.6,9-24.6,18.9-31.3,33.5C3.8,74,3.6,93.9,10.6,113.5c16.9,47,48.4,82.5,89,110.3
			C114.7,234.1,131.6,240,150.3,240.5z"/>
		<path d="M150.3,240.3c-17.9,0-35.9-6.4-50.6-16.5C59,196,27.5,160.4,10.6,113.5c-7-19.6-6.8-39.5,2.1-58.8
			c6.7-14.7,18.6-24.5,31.3-33.5c6-4.3,13-3.2,18.4,3.1c6.5,7.5,12.1,15.8,17.5,24.2c2.9,4.5,5.2,9.7,6.8,14.9
			c2.7,8.7,0.7,16.5-6.4,22.6c-4.3,3.7-8.6,7.3-13.1,10.8c-7,5.4-9.8,11.9-6.9,20.1c2.3,6.7,5.3,13.3,9.2,19.2
			c9,13.7,19.7,26,32.4,36.4c4.1,3.3,8.7,6.3,13.4,8.5c8.8,4.3,15.2,2.8,22.3-4c3.9-3.8,7.9-7.6,12.1-11.2
			c7.5-6.5,16.1-7.2,24.6-2.7c13.4,7.1,24.7,16.9,34.1,28.8c6.1,7.7,5,14.9-2.1,21.7c-7.9,7.5-16.1,14.9-25.9,19.8
			C170.8,238.2,160.6,240.3,150.3,240.3z"/>
	</g>
</g>
<g id="Layer_6" display="none">
	<g display="inline">
		<g>
			<circle fill="none" stroke="#000000" stroke-width="11.1353" stroke-miterlimit="10" cx="80" cy="110.9" r="55"/>
		</g>
		<rect x="144.2" y="128.1" transform="matrix(0.6194 -0.7851 0.7851 0.6194 -75.1885 189.5353)" width="27.4" height="88.3"/>
	</g>
</g>
<g id="Layer_7" display="none">
	<polygon display="inline" fill="none" stroke="#000000" stroke-width="11.1353" stroke-miterlimit="10" points="156.5,208.8 
		68.5,208.8 52.5,40.2 169.9,40.2 	"/>
	
		<rect x="50.9" y="19.3" display="inline" fill="none" stroke="#000000" stroke-width="11.1353" stroke-miterlimit="10" width="120.7" height="20.7"/>
	
		<rect x="86.9" y="-4.5" display="inline" fill="none" stroke="#000000" stroke-width="11.1353" stroke-miterlimit="10" width="48.7" height="18.9"/>
	
		<line display="inline" stroke="#000000" stroke-width="11.1353" stroke-miterlimit="10" x1="75.6" y1="52.2" x2="90.1" y2="197.2"/>
	
		<line display="inline" stroke="#000000" stroke-width="11.1353" stroke-miterlimit="10" x1="111.2" y1="52.2" x2="111.2" y2="196.2"/>
	
		<line display="inline" stroke="#000000" stroke-width="11.1353" stroke-miterlimit="10" x1="148.4" y1="52.2" x2="133.9" y2="197.2"/>
</g>
<g id="Layer_8" display="none">
	<g display="inline">
		<rect x="103.5" y="70.5" transform="matrix(-8.604464e-03 1 -1 -8.604464e-03 198.8806 -17.3427)" width="9.1" height="38.8"/>
	</g>
</g>
<g id="Layer_9">
	<g>
		<rect x="0" y="154.6" width="217.3" height="72.5"/>
		<g>
			
				<rect x="29.6" y="4.9" fill="none" stroke="#000000" stroke-width="9.5074" stroke-miterlimit="10" width="157.1" height="149.7"/>
			<rect x="44.4" y="39.3" width="127.6" height="9.6"/>
			<rect x="44.4" y="63.1" width="127.6" height="9.6"/>
			<rect x="44.4" y="86.8" width="127.6" height="9.6"/>
			<rect x="44.4" y="110.5" width="127.6" height="9.6"/>
		</g>
		<rect x="27.1" y="204.5" width="163" height="54.4"/>
	</g>
</g>
</svg>
