<?xml version="1.0" encoding="utf-8"?>
<!-- Generator: Adobe Illustrator 17.1.0, SVG Export Plug-In . SVG Version: 6.00 Build 0)  -->
<!DOCTYPE svg PUBLIC "-//W3C//DTD SVG 1.1//EN" "http://www.w3.org/Graphics/SVG/1.1/DTD/svg11.dtd">
<svg version="1.1" id="Layer_1" xmlns="http://www.w3.org/2000/svg" xmlns:xlink="http://www.w3.org/1999/xlink" x="0px" y="0px"
	 viewBox="0 0 112.6 137" enable-background="new 0 0 112.6 137" xml:space="preserve">
<g>
	<g>
		
			<polygon opacity="0.8" fill="#EF669F" stroke="#EF669F" stroke-width="5" stroke-linejoin="round" stroke-miterlimit="10" points="
			4.1,113.8 67.1,76.5 66.3,3.3 5,42.1 		"/>
		
			<polygon opacity="0.5" fill="#5CC1EC" stroke="#5CC1EC" stroke-width="5" stroke-linejoin="round" stroke-miterlimit="10" points="
			13.6,118.9 76.7,81.6 75.9,8.4 14.6,47.2 		"/>
		
			<polygon opacity="0.5" fill="#AAD270" stroke="#AAD270" stroke-width="5" stroke-linejoin="round" stroke-miterlimit="10" points="
			23.2,124.7 86.2,87.4 85.4,14.2 24.1,53 		"/>
		
			<polygon opacity="0.8" fill="#F5EC4F" stroke="#F5EC4F" stroke-width="5" stroke-linejoin="round" stroke-miterlimit="10" points="
			32.7,130.1 95.8,92.8 95,19.5 33.7,58.3 		"/>
		<polygon fill="#FFFFFF" stroke="#FFFFFF" stroke-width="5" stroke-linejoin="round" stroke-miterlimit="10" points="42.3,133.6 
			105.3,96.3 104.5,23 43.2,61.9 		"/>
	</g>
	<g>
		<polyline fill="none" stroke="#AEE1F6" stroke-width="3.289" stroke-linejoin="round" stroke-miterlimit="10" points="89.6,87.8 
			83.4,87.8 80.5,95.3 72.2,60.2 67.2,88.7 63.8,82.6 59.9,88.3 53.5,88.3 		"/>
		<ellipse fill="#AEE1F6" stroke="#AEE1F6" stroke-width="3.289" stroke-miterlimit="10" cx="89.6" cy="87.8" rx="3.2" ry="3.3"/>
	</g>
</g>
</svg>
