<?xml version="1.0" encoding="utf-8"?>
<!-- Generator: Adobe Illustrator 17.1.0, SVG Export Plug-In . SVG Version: 6.00 Build 0)  -->
<!DOCTYPE svg PUBLIC "-//W3C//DTD SVG 1.1//EN" "http://www.w3.org/Graphics/SVG/1.1/DTD/svg11.dtd">
<svg version="1.1" xmlns="http://www.w3.org/2000/svg" xmlns:xlink="http://www.w3.org/1999/xlink" x="0px" y="0px"
	 viewBox="0 0 133.1 226" enable-background="new 0 0 133.1 226" xml:space="preserve">
<g id="Layer_1" display="none">
	<g display="inline">
		<polygon fill="none" stroke="#000000" stroke-width="9.5074" stroke-miterlimit="10" points="131.5,16.7 -30.1,16.7 -30.1,268.8 
			165.7,268.8 165.7,43 		"/>
		<g>
			<rect x="-9.7" y="33.9" width="93.6" height="11.1"/>
			<rect x="-9.7" y="52" width="93.6" height="11.1"/>
			<rect x="-9.7" y="70.2" width="93.6" height="11.1"/>
			<rect x="-9.7" y="88.4" width="155" height="11.1"/>
			<rect x="-9.7" y="106.6" width="155" height="11.1"/>
			<rect x="-9.7" y="124.8" width="155" height="11.1"/>
			<rect x="-9.7" y="143" width="155" height="11.1"/>
			<rect x="-9.7" y="161.1" width="155" height="11.1"/>
			<rect x="-9.7" y="179.3" width="155" height="11.1"/>
			<rect x="-9.7" y="197.5" width="155" height="11.1"/>
			<rect x="-9.7" y="215.7" width="155" height="11.1"/>
			<rect x="-9.7" y="240.5" width="155" height="11.1"/>
		</g>
	</g>
</g>
<g id="Layer_2" display="none">
	<g display="inline">
		<g>
			<rect x="-58.4" y="104.8" width="102.2" height="7.3"/>
			<rect x="-58.4" y="120.8" width="102.2" height="7.3"/>
			<rect x="-58.4" y="136.7" width="102.2" height="7.3"/>
			<rect x="-58.4" y="152.7" width="102.2" height="7.3"/>
			<rect x="-58.4" y="168.6" width="102.2" height="7.3"/>
			<rect x="-58.4" y="184.6" width="102.2" height="7.3"/>
			<rect x="-58.4" y="200.5" width="102.2" height="7.3"/>
			<rect x="-58.4" y="216.5" width="102.2" height="7.3"/>
			<rect x="-58.4" y="57" width="62.1" height="7.3"/>
			<rect x="-58.4" y="72.9" width="102.2" height="7.3"/>
			<rect x="-58.4" y="88.9" width="102.2" height="7.3"/>
		</g>
		<g>
			<rect x="79.6" y="104.8" width="102.2" height="7.3"/>
			<rect x="79.6" y="120.8" width="102.2" height="7.3"/>
			<rect x="79.6" y="136.7" width="102.2" height="7.3"/>
			<rect x="79.6" y="152.7" width="102.2" height="7.3"/>
			<rect x="79.6" y="168.6" width="102.2" height="7.3"/>
			<rect x="79.6" y="184.6" width="102.2" height="7.3"/>
			<rect x="79.6" y="200.5" width="102.2" height="7.3"/>
			<rect x="79.6" y="216.5" width="102.2" height="7.3"/>
			<rect x="79.6" y="72.9" width="102.2" height="7.3"/>
			<rect x="79.6" y="88.9" width="102.2" height="7.3"/>
			<rect x="79.6" y="57" width="62.1" height="7.3"/>
		</g>
		<rect x="-76.3" y="36.5" fill="none" stroke="#000000" stroke-width="9.5074" stroke-miterlimit="10" width="138" height="208"/>
		<rect x="61.7" y="36.5" fill="none" stroke="#000000" stroke-width="9.5074" stroke-miterlimit="10" width="138" height="208"/>
	</g>
	<g display="inline">
		<g>
			<polygon fill="none" stroke="#000000" stroke-width="9.5074" stroke-miterlimit="10" points="73,19.2 61.7,31.1 48,19.2 
				-95.7,19.2 -95.7,261.8 50,261.8 61.7,250.6 75,261.8 219.2,261.8 219.2,19.2 			"/>
		</g>
	</g>
</g>
<g id="Layer_3" display="none">
	<g display="inline">
		<path d="M59.1,154.2l-0.2-2.3c-0.5-4.8,1.1-10.1,5.5-15.5c4-4.7,6.3-8.2,6.3-12.2c0-4.6-2.9-7.6-8.5-7.7c-3.2,0-6.8,1.1-9,2.8
			l-2.1-5.6c2.9-2.1,8-3.6,12.8-3.6c10.3,0,14.9,6.3,14.9,13.1c0,6.1-3.4,10.5-7.7,15.5c-3.9,4.6-5.4,8.6-5.1,13.1l0.1,2.3H59.1z
			 M57.1,166.7c0-3.3,2.2-5.6,5.4-5.6c3.1,0,5.3,2.3,5.3,5.6c0,3.1-2.1,5.5-5.4,5.5C59.2,172.3,57.1,169.9,57.1,166.7z"/>
	</g>
	
		<circle display="inline" fill="none" stroke="#000000" stroke-width="9.5074" stroke-miterlimit="10" cx="64.9" cy="141.2" r="55.7"/>
</g>
<g id="Layer_4" display="none">
	<g display="inline">
		<g>
			<g>
				<path d="M68.7,108.9c0.1,2.9-2.1,5.3-5.5,5.3c-3,0-5.2-2.4-5.2-5.3c0-3.1,2.3-5.4,5.4-5.4C66.7,103.4,68.7,105.8,68.7,108.9z
					 M59.1,169.8v-47.6h8.7v47.6H59.1z"/>
			</g>
		</g>
		<circle fill="none" stroke="#000000" stroke-width="11.1353" stroke-miterlimit="10" cx="63.4" cy="136.6" r="55.7"/>
	</g>
</g>
<g id="Layer_5" display="none">
	<g display="inline">
		<path fill="#FFFFFF" d="M105.9,252.2c5.4-0.8,10.9-1.2,16.2-2.3c16.3-3.3,28.2-13.5,39.7-24.6c7.1-6.8,8.1-14,2.1-21.7
			c-9.4-11.9-20.7-21.7-34.1-28.8c-8.5-4.5-17.1-3.8-24.6,2.7c-4.2,3.6-8.1,7.4-12.1,11.2c-7,6.8-13.5,8.2-22.3,4
			c-4.7-2.3-9.3-5.2-13.4-8.5C44.8,173.6,34,161.3,25,147.6c-3.9-5.9-6.8-12.5-9.2-19.2c-2.9-8.2-0.1-14.7,6.9-20.1
			c4.5-3.4,8.8-7.1,13.1-10.8c7-6.1,9-14,6.4-22.6c-1.6-5.2-3.9-10.4-6.8-14.9c-5.4-8.4-11-16.7-17.5-24.2
			c-5.4-6.3-12.4-7.4-18.4-3.1c-12.6,9-24.6,18.9-31.3,33.5c-8.8,19.3-9.1,39.3-2.1,58.8c16.9,47,48.4,82.5,89,110.3
			C70.3,245.8,87.2,251.7,105.9,252.2z"/>
		<path d="M105.9,251.9c-17.9,0-35.9-6.4-50.6-16.5c-40.6-27.9-72.2-63.4-89-110.3c-7-19.6-6.8-39.5,2.1-58.8
			c6.7-14.7,18.6-24.5,31.3-33.5c6-4.3,13-3.2,18.4,3.1C24.4,43.3,30,51.7,35.4,60c2.9,4.5,5.2,9.7,6.8,14.9
			c2.7,8.7,0.7,16.5-6.4,22.6c-4.3,3.7-8.6,7.3-13.1,10.8c-7,5.4-9.8,11.9-6.9,20.1c2.3,6.7,5.3,13.3,9.2,19.2
			c9,13.7,19.7,26,32.4,36.4c4.1,3.3,8.7,6.3,13.4,8.5c8.8,4.3,15.2,2.8,22.3-4c3.9-3.8,7.9-7.6,12.1-11.2
			c7.5-6.5,16.1-7.2,24.6-2.7c13.4,7.1,24.7,16.9,34.1,28.8c6.1,7.7,5,14.9-2.1,21.7c-7.9,7.5-16.1,14.9-25.9,19.8
			C126.4,249.8,116.1,251.9,105.9,251.9z"/>
	</g>
</g>
<g id="Layer_6" display="none">
	<g display="inline">
		<g>
			<circle fill="none" stroke="#000000" stroke-width="11.1353" stroke-miterlimit="10" cx="35.6" cy="122.6" r="55"/>
		</g>
		<rect x="99.8" y="139.8" transform="matrix(0.6194 -0.7851 0.7851 0.6194 -101.2544 159.1027)" width="27.4" height="88.3"/>
	</g>
</g>
<g id="Layer_7">
	<polygon fill="none" stroke="#000000" stroke-width="11.1353" stroke-miterlimit="10" points="112.1,220.5 24.1,220.5 8.1,51.8 
		125.4,51.8 	"/>
	<rect x="6.4" y="30.9" fill="none" stroke="#000000" stroke-width="11.1353" stroke-miterlimit="10" width="120.7" height="20.7"/>
	<rect x="42.4" y="7.2" fill="none" stroke="#000000" stroke-width="11.1353" stroke-miterlimit="10" width="48.7" height="18.9"/>
	<line stroke="#000000" stroke-width="11.1353" stroke-miterlimit="10" x1="31.2" y1="63.8" x2="45.7" y2="208.8"/>
	<line stroke="#000000" stroke-width="11.1353" stroke-miterlimit="10" x1="66.8" y1="63.8" x2="66.8" y2="207.8"/>
	<line stroke="#000000" stroke-width="11.1353" stroke-miterlimit="10" x1="104" y1="63.8" x2="89.5" y2="208.8"/>
</g>
<g id="Layer_8" display="none">
	<g display="inline">
		<rect x="59.1" y="82.2" transform="matrix(-8.604464e-03 1 -1 -8.604464e-03 165.7452 38.8422)" width="9.1" height="38.8"/>
	</g>
</g>
<g id="Layer_9" display="none">
	<g display="inline">
		<rect x="-44.4" y="166.3" width="217.3" height="72.5"/>
		<g>
			
				<rect x="-14.8" y="16.6" fill="none" stroke="#000000" stroke-width="9.5074" stroke-miterlimit="10" width="157.1" height="149.7"/>
			<rect x="0" y="51" width="127.6" height="9.6"/>
			<rect x="0" y="74.7" width="127.6" height="9.6"/>
			<rect x="0" y="98.5" width="127.6" height="9.6"/>
			<rect x="0" y="122.2" width="127.6" height="9.6"/>
		</g>
		<rect x="-17.3" y="216.2" width="163" height="54.4"/>
	</g>
</g>
</svg>
